<?xml version="1.0" standalone="no"?>
<!DOCTYPE svg PUBLIC "-//W3C//DTD SVG 1.1//EN" "http://www.w3.org/Graphics/SVG/1.1/DTD/svg11.dtd" >
<svg xmlns="http://www.w3.org/2000/svg" xmlns:xlink="http://www.w3.org/1999/xlink" version="1.1">
<metadata></metadata>
<defs>
<font id="baloo_2medium" horiz-adv-x="1150" >
<font-face units-per-em="2048" ascent="1638" descent="-410" />
<missing-glyph horiz-adv-x="409" />
<glyph unicode="&#xfb01;" horiz-adv-x="1349" d="M352 899h387q8 -12 15.5 -33.5t7.5 -50.5q0 -86 -78 -86h-326v-725q-14 -6 -39.5 -11t-56.5 -5q-59 0 -88 22.5t-29 75.5v934q0 94 28 161.5t79 110.5t124 63.5t161 20.5q127 0 194.5 -32.5t67.5 -92.5q0 -29 -11.5 -50t-27.5 -38q-39 16 -90.5 28.5t-104.5 12.5 q-115 0 -164 -45t-49 -147v-113zM1198 4q-14 -6 -39.5 -11t-58.5 -5q-59 0 -88 22.5t-29 75.5v866l42 10.5t58 6.5q59 0 87 -22.5t28 -78.5v-864zM961 1253q0 53 36.5 89t94.5 36q57 0 92 -35.5t35 -89.5q0 -53 -35 -89t-92 -36t-94 36t-37 89z" />
<glyph unicode="&#xfb02;" horiz-adv-x="1357" d="M352 899h387q8 -12 15.5 -33.5t7.5 -50.5q0 -86 -78 -86h-326v-725q-14 -6 -39.5 -11t-56.5 -5q-59 0 -88 22.5t-29 75.5v934q0 94 28 161.5t79 110.5t124 63.5t161 20.5q127 0 194.5 -32.5t67.5 -92.5q0 -29 -11.5 -50t-27.5 -38q-39 16 -90.5 28.5t-104.5 12.5 q-115 0 -164 -45t-49 -147v-113zM1106 -12q-59 0 -88 22.5t-29 75.5v1243q14 4 41 10.5t57 6.5q59 0 88 -23t29 -76v-1243q-16 -6 -41.5 -11t-56.5 -5z" />
<glyph unicode="&#xfb03;" horiz-adv-x="2095" d="M352 899h387q8 -12 15.5 -33.5t7.5 -50.5q0 -86 -78 -86h-326v-725q-14 -6 -39.5 -11t-56.5 -5q-59 0 -88 22.5t-29 75.5v934q0 94 28 161.5t79 110.5t124 63.5t161 20.5q127 0 194.5 -32.5t67.5 -92.5q0 -29 -11.5 -50t-27.5 -38q-39 16 -90.5 28.5t-104.5 12.5 q-115 0 -164 -45t-49 -147v-113zM1102 899h387q8 -12 15 -33.5t7 -50.5q0 -86 -77 -86h-326v-725q-14 -6 -40 -11t-56 -5q-59 0 -88 22.5t-29 75.5v934q0 94 27.5 161.5t79 110.5t124 63.5t160.5 20.5q127 0 194.5 -32.5t67.5 -92.5q0 -29 -11 -50t-28 -38q-39 16 -90 28.5 t-104 12.5q-115 0 -164 -45t-49 -147v-113zM1944 4q-14 -6 -40 -11t-59 -5q-59 0 -87.5 22.5t-28.5 75.5v866q16 4 41.5 10.5t58.5 6.5q59 0 87 -22.5t28 -78.5v-864zM1706 1253q0 53 37 89t94 36t92 -35.5t35 -89.5q0 -53 -35 -89t-92 -36t-94 36t-37 89z" />
<glyph unicode="&#xfb04;" horiz-adv-x="2162" d="M1858 -12q-59 0 -88 22.5t-29 75.5v1243q14 4 40.5 10.5t57.5 6.5q59 0 88 -23t29 -76v-1243q-16 -6 -41.5 -11t-56.5 -5zM352 899h387q8 -12 15.5 -33.5t7.5 -50.5q0 -86 -78 -86h-326v-725q-14 -6 -39.5 -11t-56.5 -5q-59 0 -88 22.5t-29 75.5v934q0 94 28 161.5 t79 110.5t124 63.5t161 20.5q127 0 194.5 -32.5t67.5 -92.5q0 -29 -11.5 -50t-27.5 -38q-39 16 -90.5 28.5t-104.5 12.5q-115 0 -164 -45t-49 -147v-113zM1102 899h387q8 -12 15 -33.5t7 -50.5q0 -86 -77 -86h-326v-725q-14 -6 -40 -11t-56 -5q-59 0 -88 22.5t-29 75.5v934 q0 94 27.5 161.5t79 110.5t124 63.5t160.5 20.5q127 0 194.5 -32.5t67.5 -92.5q0 -29 -11 -50t-28 -38q-39 16 -90 28.5t-104 12.5q-115 0 -164 -45t-49 -147v-113z" />
<glyph horiz-adv-x="0" />
<glyph unicode="&#xd;" horiz-adv-x="456" />
<glyph unicode=" "  horiz-adv-x="409" />
<glyph unicode="&#x09;" horiz-adv-x="409" />
<glyph unicode="&#xa0;" horiz-adv-x="409" />
<glyph unicode="!" horiz-adv-x="538" d="M377 1178q0 -57 -2 -152.5t-5 -204t-8.5 -218t-13.5 -195.5q-14 -10 -37.5 -16.5t-46.5 -6.5q-39 0 -62.5 13.5t-27.5 47.5q-6 55 -11 158t-8 218.5t-5.5 231t-2.5 199.5q55 33 121 33q51 0 80 -26.5t29 -81.5zM127 111q0 59 37 97t100 38q66 0 101.5 -38t35.5 -97 t-35.5 -98.5t-101.5 -39.5q-63 0 -100 39.5t-37 98.5z" />
<glyph unicode="&#x22;" horiz-adv-x="630" d="M240 834q-31 -14 -80 -15q-35 0 -58.5 15.5t-25.5 52.5l-17 370q23 12 47.5 20.5t57.5 8.5q96 0 96 -92q0 -27 -2 -73t-5 -97t-7 -102t-6 -88zM549 834q-31 -14 -80 -15q-37 0 -58.5 15.5t-23.5 52.5l-18 370q23 12 47 20.5t57 8.5q96 0 96 -94q0 -27 -2 -72t-5 -96 l-6 -102t-7 -88z" />
<glyph unicode="#" horiz-adv-x="1392" d="M1051 788l-66 -311h256q8 -16 14.5 -35.5t6.5 -44.5q0 -84 -84 -84h-228l-67 -317q-31 -6 -64 -6q-45 0 -71.5 19.5t-26.5 66.5q0 29 7 66.5t13 64.5l23 106h-270l-68 -317q-31 -6 -64 -6q-45 0 -71.5 19.5t-26.5 66.5q0 27 8.5 65.5t14.5 65.5l22 106h-209q-8 14 -14 35 t-6 43q0 86 82 86h182l66 311h-250q-8 16 -14.5 36t-6.5 42q0 45 22.5 65.5t59.5 20.5h223l66 301q16 2 32.5 3t30.5 1q45 0 72 -19t27 -67q0 -29 -8.5 -64.5t-14.5 -64.5l-20 -90h270l66 301q16 2 32.5 3t32.5 1q43 0 70.5 -19t27.5 -67q0 -29 -8 -64.5t-14 -64.5l-21 -90 h218q6 -14 12 -34.5t6 -45.5q0 -84 -82 -84h-188zM528 477h271l65 311h-270z" />
<glyph unicode="$" horiz-adv-x="1093" d="M524 152q129 0 190.5 53t61.5 137q0 74 -47 119t-149 76l-154 47q-72 23 -130 52.5t-99 69t-62.5 94t-21.5 126.5q0 137 88 226t243 112v161q12 4 35 8.5t51 4.5q106 0 107 -88v-80q137 -10 224 -57.5t87 -112.5q0 -35 -17.5 -60.5t-41.5 -42.5q-51 39 -134 67t-184 28 q-113 0 -174 -45.5t-61 -120.5q0 -61 43 -99.5t141 -66.5l119 -35q172 -51 267 -140t95 -243q0 -145 -94 -242.5t-270 -119.5v-160q-12 -4 -34.5 -8.5t-51.5 -4.5q-106 0 -107 89v79q-154 14 -247 68.5t-93 122.5q0 41 25 69.5t57 43.5q49 -45 134 -86t204 -41z" />
<glyph unicode="%" horiz-adv-x="1595" d="M694 963q0 -70 -23.5 -126.5t-63.5 -95.5t-94 -59t-118 -20q-66 0 -120 20t-95 59t-63.5 95.5t-22.5 126.5t22.5 125t63.5 94t95.5 59.5t119.5 20.5q63 0 117.5 -20.5t94.5 -59.5t63.5 -94t23.5 -125zM268 963q0 -76 36 -116t91 -40t91 40t36 116q0 74 -35.5 113.5 t-91.5 39.5q-55 0 -91 -39.5t-36 -113.5zM1128 1262q53 -8 88 -28t35 -54q0 -41 -39 -97l-739 -1097q-53 4 -89 26.5t-36 55.5q0 23 10.5 44t28.5 50zM1501 285q0 -70 -22.5 -126.5t-62.5 -95t-95 -59t-119 -20.5q-63 0 -118.5 20.5t-95.5 59t-63.5 95t-23.5 126.5t23.5 125 t63.5 94t95.5 59.5t118.5 20.5t118.5 -20.5t95.5 -59.5t62.5 -94t22.5 -125zM1075 285q0 -76 35 -116t92 -40q55 0 90 40t35 116q0 74 -35 113.5t-90 39.5q-57 0 -92 -39.5t-35 -113.5z" />
<glyph unicode="&#x26;" horiz-adv-x="1325" d="M1157 -29q-29 0 -52.5 14.5t-49.5 41.5l-86 88q-74 -72 -174.5 -109t-223.5 -37q-111 0 -198.5 30t-149 84t-95.5 130t-34 168q0 145 76 238.5t190 136.5q-53 61 -72.5 115.5t-19.5 113.5q0 127 88 208t252 81q115 0 170.5 -36t55.5 -89q0 -27 -13.5 -49.5t-32.5 -38.5 q-31 16 -70.5 26.5t-82.5 10.5q-72 0 -114 -34t-42 -93q0 -55 30 -98.5t87 -102.5l352 -360q23 66 36 148.5t13 178.5q49 23 93 23q57 0 80.5 -33t23.5 -88q0 -94 -25.5 -193.5t-72.5 -183.5l174 -178q-6 -51 -36 -82t-77 -31zM578 143q59 0 129.5 21.5t134.5 81.5l-363 375 q-70 -23 -122 -81.5t-52 -152.5q0 -111 72 -177.5t201 -66.5z" />
<glyph unicode="'" horiz-adv-x="329" d="M248 836q-16 -6 -39 -11.5t-45 -5.5q-39 0 -62.5 17.5t-25.5 52.5l-17 366q23 12 48.5 21.5t60.5 9.5q102 0 102 -96q0 -27 -2 -72t-5 -95t-7 -100t-8 -87z" />
<glyph unicode="(" horiz-adv-x="548" d="M428 -250q-47 0 -82 32t-65 81q-82 127 -129.5 298t-47.5 396q0 223 53.5 396t123.5 288q31 51 65.5 81t81.5 30q37 0 63.5 -19.5t40.5 -48.5q-109 -145 -166 -324.5t-57 -402.5q0 -225 54.5 -400t168.5 -337q-14 -27 -40.5 -48.5t-63.5 -21.5z" />
<glyph unicode=")" horiz-adv-x="548" d="M121 -250q-37 0 -63.5 21.5t-41.5 48.5q115 162 169.5 337t54.5 400q0 223 -57.5 402.5t-166.5 324.5q14 29 41 48.5t64 19.5q47 0 82 -30t65 -81q70 -115 123 -288t53 -396q0 -225 -47 -396t-129 -298q-31 -49 -65.5 -81t-81.5 -32z" />
<glyph unicode="*" horiz-adv-x="641" d="M117 1182q16 0 49 -15l86 -41l-2 179q10 8 30.5 16t45.5 8q31 0 52 -15.5t21 -49.5q0 -12 -3 -56.5t-7 -85.5l150 78q23 -10 41 -32.5t18 -53.5t-17.5 -44t-45.5 -28l-99 -45l119 -149q-6 -31 -30.5 -52.5t-55.5 -21.5t-48.5 19.5t-37.5 46.5l-57 82l-99 -144 q-10 -4 -17 -4h-15q-47 0 -71 20.5t-24 51.5t31 65l78 88l-160 52q-8 25 -8 53q0 35 20.5 56.5t55.5 21.5z" />
<glyph unicode="+" horiz-adv-x="1120" d="M662 694h346q8 -16 14 -37.5t6 -46.5q0 -47 -22.5 -68.5t-63.5 -21.5h-280v-385q-16 -4 -40 -9t-51 -5q-53 0 -79.5 20.5t-26.5 79.5v299h-352q-8 16 -14.5 37t-6.5 47q0 45 23.5 67.5t62.5 22.5h287v375q18 6 42.5 11t53.5 5q49 0 75 -21.5t26 -78.5v-291z" />
<glyph unicode="," horiz-adv-x="352" d="M184 -180q-23 -33 -46 -48.5t-58 -15.5q-57 0 -96 39q16 45 33.5 101.5t34 115t30.5 114.5t22 101q23 10 49.5 18.5t57.5 8.5q43 0 71.5 -20.5t28.5 -71.5q0 -37 -13 -86t-32.5 -97.5t-41.5 -91t-40 -67.5z" />
<glyph unicode="-" horiz-adv-x="776" d="M119 442q-10 16 -16.5 38t-6.5 48q0 45 23.5 67.5t64.5 22.5h475q6 -16 13.5 -37.5t7.5 -45.5q0 -45 -22.5 -69t-63.5 -24h-475z" />
<glyph unicode="." horiz-adv-x="344" d="M37 109q0 59 36 98t99 39q66 0 100.5 -39t34.5 -98t-34.5 -98.5t-100.5 -39.5q-63 0 -99 39.5t-36 98.5z" />
<glyph unicode="/" horiz-adv-x="645" d="M211 -215q-35 -6 -68 -6q-106 0 -106 96q0 33 11 71t18 62l370 1436q18 4 34.5 4h33.5q49 0 78.5 -21.5t29.5 -72.5q0 -33 -9 -67t-17 -66z" />
<glyph unicode="0" horiz-adv-x="1206" d="M889 623q0 123 -22.5 212t-60.5 146t-90 85t-114 28q-61 0 -112.5 -28t-90.5 -86t-60.5 -147.5t-21.5 -209.5q0 -231 75 -352t210 -121q137 0 212 121t75 352zM602 -29q-111 0 -204 40t-158.5 122t-102.5 204t-37 286q0 172 40 294.5t109.5 201.5t160 116t192.5 37 t194.5 -38t161 -118t109.5 -202.5t41 -290.5q0 -164 -37 -286t-103.5 -204t-159.5 -122t-206 -40z" />
<glyph unicode="1" horiz-adv-x="751" d="M561 0q-16 -6 -42.5 -11t-57.5 -5q-59 0 -88 22.5t-29 77.5v954l-246 -106q-29 12 -49 36.5t-20 65.5t22.5 66.5t71.5 46.5l270 113h49q53 0 86 -32t33 -85v-1143z" />
<glyph unicode="2" horiz-adv-x="1048" d="M119 1102q0 35 26.5 65.5t74.5 54t112.5 37t140.5 13.5q211 0 325.5 -100.5t114.5 -262.5q0 -113 -61 -219t-207 -235l-315 -283h575q10 -12 17.5 -34.5t7.5 -49.5q0 -43 -21.5 -65.5t-56.5 -22.5h-719q-57 39 -57 113q0 41 16.5 73.5t44.5 57.5l344 323 q59 55 100.5 100.5t66 84.5t34.5 74.5t10 74.5q0 86 -60.5 139.5t-176.5 53.5q-90 0 -159 -29t-114 -64q-27 14 -45 40t-18 61z" />
<glyph unicode="3" horiz-adv-x="1042" d="M453 1274q207 0 327.5 -89t120.5 -257q0 -59 -18.5 -105.5t-47 -80t-62.5 -56t-64 -31.5q41 -14 81.5 -38.5t72.5 -63.5t52.5 -90t20.5 -117q0 -90 -35 -159.5t-98.5 -116.5t-151.5 -71t-192 -24q-90 0 -164 14.5t-126 38t-80 55.5t-28 67q0 37 18.5 62.5t47.5 41.5 q49 -37 124 -69.5t195 -32.5q127 0 201 52t74 154q0 92 -66.5 146.5t-201.5 54.5h-177q-10 14 -17 38t-7 50q0 29 7 51.5t17 36.5h166q131 0 187.5 48t56.5 132q0 86 -65.5 133.5t-184.5 47.5q-96 0 -166.5 -27t-117.5 -59q-25 14 -43.5 38.5t-18.5 59.5t27.5 64.5t76 52 t115 36t144.5 13.5z" />
<glyph unicode="4" horiz-adv-x="1153" d="M639 1243q23 6 54.5 10t56.5 4q29 0 55 -5t47.5 -19t34 -39t12.5 -61v-670h193q8 -14 15 -37t7 -49q0 -45 -21.5 -67.5t-58.5 -22.5h-135v-289q-14 -4 -39.5 -9t-54.5 -5q-57 0 -87 19.5t-30 72.5v211h-561q-29 14 -49.5 46t-20.5 77q0 23 5.5 46t15.5 42zM698 1036h-4 l-399 -573h401z" />
<glyph unicode="5" horiz-adv-x="1093" d="M928 1245q8 -12 15 -34.5t7 -49.5q0 -94 -80 -94h-487l-29 -319q35 16 92.5 30.5t124.5 14.5q94 0 174 -28t136.5 -80t88 -126t31.5 -168q0 -88 -30.5 -164.5t-90 -133t-149.5 -89.5t-207 -33q-90 0 -163.5 15.5t-126 41t-81 58.5t-28.5 70q0 39 23.5 67.5t52.5 40.5 q49 -41 127 -79t188 -38q129 0 197.5 69t68.5 173q0 109 -68.5 169t-185.5 60q-68 0 -121 -19t-102 -46q-68 4 -108.5 39t-40.5 98q0 10 1 26.5t3 39.5l30 368q4 55 35 88t86 33h617v0z" />
<glyph unicode="6" horiz-adv-x="1130" d="M948 1135q0 -31 -15 -57.5t-38 -39.5q-47 23 -105.5 39.5t-117.5 16.5q-150 0 -248 -101.5t-109 -310.5q41 37 121 77t191 40q92 0 167.5 -27t130 -78t85 -128t30.5 -177q0 -92 -30.5 -169t-89 -132t-142.5 -86t-188 -31q-109 0 -198 37t-154.5 112t-101.5 190.5 t-36 275.5q0 186 45 317t122 213t177.5 119t210.5 37q61 0 114.5 -9.5t93.5 -26.5t62.5 -42.5t22.5 -58.5zM590 147q104 0 168.5 63.5t64.5 180.5t-65.5 175.5t-165.5 58.5q-92 0 -162 -38t-111 -91v-11q0 -158 72 -248t199 -90z" />
<glyph unicode="7" horiz-adv-x="952" d="M858 1245q25 -16 41 -42.5t16 -61.5q0 -51 -22 -99l-490 -1052q-16 -2 -31.5 -2h-31.5q-53 0 -90 23.5t-37 72.5q0 27 13.5 59.5t33.5 73.5l418 850h-608q-8 12 -15.5 34.5t-7.5 51.5q0 45 21.5 68.5t58.5 23.5h731z" />
<glyph unicode="8" horiz-adv-x="1161" d="M104 334q0 61 17.5 110.5t48.5 89t72 69.5t86 48q-90 39 -140.5 106.5t-50.5 170.5q0 80 32 143.5t90 108.5t140 68.5t183 23.5q209 0 327.5 -92.5t118.5 -253.5q0 -106 -57.5 -174t-149.5 -103q47 -18 90 -46t76 -66.5t52.5 -90t19.5 -114.5q0 -84 -35 -151.5 t-98.5 -114t-150.5 -71t-193 -24.5q-109 0 -196 24.5t-150.5 71t-97.5 114t-34 153.5zM844 342q0 96 -77 158.5t-210 79.5q-113 -27 -175.5 -87.5t-62.5 -152.5q0 -94 70 -146.5t193 -52.5q119 0 190.5 51.5t71.5 149.5zM348 922q0 -49 19.5 -85t54.5 -59.5t81 -38t99 -20.5 q106 29 159.5 77t53.5 126q0 86 -61.5 133t-171.5 47q-106 0 -170 -49t-64 -131z" />
<glyph unicode="9" horiz-adv-x="1134" d="M160 115q0 29 15 55.5t38 40.5q43 -23 104.5 -42t139.5 -19q76 0 141.5 23.5t114.5 72.5t76.5 127t27.5 186q-16 -16 -42.5 -35.5t-63.5 -36t-83 -27.5t-102 -11q-88 0 -166.5 23.5t-137 72.5t-93.5 124.5t-35 180.5q0 94 33 172t91 133t141 86t182 31q111 0 200.5 -38 t155.5 -114t101.5 -190.5t35.5 -270.5q0 -184 -41 -314t-114.5 -213t-177 -122t-228.5 -39q-68 0 -125 9.5t-99 28t-65.5 45t-23.5 61.5zM563 621q86 0 155.5 43t96.5 96q0 150 -70.5 243t-203.5 93q-102 0 -167 -63.5t-65 -176.5q0 -123 74 -179t180 -56z" />
<glyph unicode=":" horiz-adv-x="425" d="M80 805q0 59 36 98t99 39q66 0 101.5 -39t35.5 -98t-35.5 -98t-101.5 -39q-63 0 -99 39t-36 98zM78 109q0 59 34.5 98t100.5 39q63 0 99 -39t36 -98t-36 -98.5t-99 -39.5q-66 0 -100.5 39.5t-34.5 98.5z" />
<glyph unicode=";" horiz-adv-x="450" d="M90 805q0 59 35 98t100 39q63 0 99 -39t36 -98t-35.5 -98t-99.5 -39q-66 0 -100.5 39t-34.5 98zM223 -180q-23 -33 -46 -48.5t-58 -15.5q-57 0 -96 39q16 45 33.5 101.5t33.5 115t30.5 114.5t22.5 101q23 10 49.5 18.5t57.5 8.5q43 0 71.5 -20.5t28.5 -71.5 q0 -37 -13 -86t-32.5 -97.5t-41.5 -91t-40 -67.5z" />
<glyph unicode="&#x3c;" horiz-adv-x="978" d="M911 297q2 -12 2 -22.5v-20.5q0 -43 -23.5 -72.5t-74.5 -29.5q-23 0 -47.5 10t-54.5 26l-586 314q-14 20 -22.5 45.5t-8.5 54.5q0 47 14.5 73.5t39.5 39.5l663 338q53 -16 74.5 -43t21.5 -60q0 -45 -24.5 -70.5t-67.5 -50.5l-514 -227z" />
<glyph unicode="=" horiz-adv-x="1056" d="M115 727q-20 31 -21 82q0 45 22.5 67.5t63.5 22.5h762q6 -16 12.5 -36.5t6.5 -47.5q0 -47 -23 -67.5t-64 -20.5h-759zM115 309q-20 31 -21 82q0 45 22.5 67.5t63.5 22.5h762q6 -16 12.5 -37.5t6.5 -46.5q0 -47 -23 -67.5t-64 -20.5h-759z" />
<glyph unicode="&#x3e;" horiz-adv-x="960" d="M68 909q-2 12 -3.5 22.5t-1.5 20.5q0 41 25 72t74 31q23 0 48.5 -9.5t53.5 -25.5l574 -313q29 -39 28 -101q0 -47 -14 -72.5t-37 -39.5l-647 -338q-53 16 -74.5 42.5t-21.5 61.5q0 43 23.5 68.5t68.5 48.5l495 233z" />
<glyph unicode="?" horiz-adv-x="962" d="M248 416q-23 18 -40.5 48t-17.5 66q0 72 91 95l147 37q113 29 172 86t59 149q0 82 -62 142.5t-196 60.5q-82 0 -162.5 -24.5t-127.5 -61.5q-27 20 -42.5 45.5t-15.5 60.5q0 37 28 68t76 52.5t115.5 33.5t147.5 12q106 0 192 -28.5t146.5 -80t93.5 -123t33 -155.5 q0 -174 -108.5 -279.5t-325.5 -156.5zM213 111q0 59 37 98t100 39t100 -39t37 -98t-36.5 -98.5t-100.5 -39.5q-63 0 -100 39.5t-37 98.5z" />
<glyph unicode="@" horiz-adv-x="2086" d="M1409 188q20 -12 46 -20t58 -8q61 0 107.5 28.5t77.5 81t47 125t16 158.5q0 137 -48 252t-137 196.5t-214 127t-279 45.5q-174 0 -315 -55.5t-241.5 -156t-155 -238.5t-54.5 -306q0 -160 50.5 -290t141.5 -222t218 -141.5t281 -49.5q82 0 141 9.5t102 19.5 q12 -16 20.5 -36.5t8.5 -41.5q0 -57 -61.5 -90t-225.5 -33q-184 0 -346 58.5t-281.5 170t-188 274.5t-68.5 372q0 211 70.5 381t198.5 290.5t307 186t396 65.5q203 0 367 -56t280.5 -159.5t179 -250t62.5 -324.5q0 -268 -116.5 -414.5t-340.5 -146.5q-63 0 -127.5 19.5 t-117.5 58.5q-45 -29 -106.5 -48.5t-141.5 -19.5q-180 0 -291 106.5t-111 301.5q0 111 35 199.5t98.5 150t152.5 95.5t198 34q84 0 155.5 -20.5t120.5 -49.5q84 -49 84 -110q0 -12 -1 -26.5t-3 -29.5zM834 408q0 -117 59 -177.5t160 -60.5q90 0 157 55l45 455 q-29 14 -68.5 23.5t-92.5 9.5q-115 0 -187.5 -79t-72.5 -226z" />
<glyph unicode="A" horiz-adv-x="1232" d="M862 311h-500l-100 -313q-18 -8 -38.5 -12t-49.5 -4q-51 0 -84 22.5t-33 67.5q0 23 6.5 44t16.5 48q27 86 75 222t102 287.5t109.5 298t96.5 251.5q20 12 63 23t88 11q59 0 106.5 -16t63.5 -57q45 -117 98.5 -265.5t106.5 -306t102.5 -309t88.5 -274.5q-18 -20 -48 -33.5 t-71 -13.5q-55 0 -80 21.5t-41 72.5zM612 1067q-20 -55 -44.5 -125t-51.5 -146.5t-53.5 -155.5t-50.5 -153h403q-27 82 -54.5 165t-53 159t-48 142.5t-36.5 113.5h-11z" />
<glyph unicode="B" horiz-adv-x="1236" d="M1083 928q0 -90 -45 -161t-143 -112q119 -39 177 -118.5t58 -186.5q0 -193 -138 -284t-396 -91q-80 0 -169 8.5t-165 30.5q-94 27 -94 109v1024q0 35 19.5 54.5t54.5 29.5q70 23 154.5 31t183.5 8q240 0 371.5 -84t131.5 -258zM907 356q0 94 -69.5 148.5t-200.5 54.5 h-254v-389q43 -10 102.5 -15t118.5 -5q145 0 224 50t79 156zM383 725h244q117 0 176 51t59 139q0 180 -282 181q-59 0 -108.5 -4.5t-88.5 -10.5v-356z" />
<glyph unicode="C" horiz-adv-x="1193" d="M1096 1096q0 -35 -19.5 -61.5t-46.5 -39.5q-53 35 -121.5 66t-173.5 31q-90 0 -164.5 -31t-129 -90.5t-85 -147.5t-30.5 -202q0 -231 114.5 -350t302.5 -119q100 0 174 28.5t127 65.5q23 -14 42.5 -41t19.5 -62q0 -29 -15.5 -53t-50.5 -45q-45 -29 -122.5 -51.5 t-196.5 -22.5q-131 0 -243.5 40t-196.5 121t-132.5 203t-48.5 286q0 160 49.5 282.5t132.5 204.5t193.5 124t235.5 42q88 0 158.5 -15.5t120.5 -40t78 -57t28 -65.5z" />
<glyph unicode="D" horiz-adv-x="1343" d="M1018 631q0 121 -35 208t-96.5 142t-143 82t-176.5 27q-109 0 -180 -15v-903q41 -10 91 -13t102 -3q213 0 325.5 119.5t112.5 355.5zM1243 633q0 -166 -47 -290t-134 -206t-210 -122t-272 -40q-66 0 -154 6.5t-164 30.5q-94 31 -94 111v1026q0 35 19.5 54.5t54.5 29.5 q72 23 155.5 30t163.5 7q152 0 278 -39t216 -119t139 -199.5t49 -279.5z" />
<glyph unicode="E" horiz-adv-x="1097" d="M287 -2q-53 0 -86 32.5t-33 86.5v1009q0 53 32.5 85t86.5 32h678q10 -12 17 -34.5t7 -49.5q0 -45 -21.5 -69.5t-58.5 -24.5h-524v-340h518q10 -12 17.5 -34.5t7.5 -49.5q0 -47 -21.5 -69.5t-58.5 -22.5h-463v-373h590q8 -12 16 -34.5t8 -49.5q0 -47 -21.5 -70.5 t-57.5 -23.5h-633v0z" />
<glyph unicode="F" horiz-adv-x="1067" d="M967 1243q10 -12 17 -34.5t7 -49.5q0 -96 -82 -96h-522v-373h508q10 -14 17.5 -35.5t7.5 -50.5q0 -94 -80 -94h-451v-508q-14 -4 -42 -9t-58 -5q-121 0 -121 100v1038q0 53 32.5 85t86.5 32h680z" />
<glyph unicode="G" horiz-adv-x="1323" d="M1192 158q0 -43 -21.5 -71t-66.5 -50q-53 -29 -147.5 -47.5t-192.5 -18.5q-145 0 -267 38t-210 118t-137.5 203t-49.5 291q0 164 51.5 286.5t138.5 203.5t204.5 122t250.5 41q88 0 162 -15.5t127 -40t82 -56.5t29 -66q0 -35 -18.5 -60.5t-45.5 -40.5q-55 35 -131 66 t-190 31q-92 0 -172 -31t-138.5 -90.5t-91 -147.5t-32.5 -202q0 -121 33.5 -210t92 -146.5t139.5 -85t175 -27.5q66 0 123 11t88 27v328h-283q-10 12 -17 36t-7 48q0 47 21.5 69.5t58.5 22.5h344q43 0 70.5 -25.5t27.5 -72.5v-438z" />
<glyph unicode="H" horiz-adv-x="1349" d="M961 1243q14 4 42.5 9t59.5 5q59 0 89 -22.5t30 -79.5v-1151q-16 -6 -44 -11t-59 -5q-63 0 -90.5 23.5t-27.5 78.5v449h-572v-535q-16 -6 -43 -11t-59 -5q-63 0 -91 23.5t-28 78.5v1153q16 4 44 9t58 5q59 0 89 -22.5t30 -79.5v-438h572v526v0z" />
<glyph unicode="I" horiz-adv-x="561" d="M389 4q-14 -6 -42 -11t-58 -5q-63 0 -91 23.5t-28 78.5v1153q16 4 44 9t58 5q59 0 88 -22.5t29 -79.5v-1151v0z" />
<glyph unicode="J" horiz-adv-x="802" d="M238 158q90 0 135 42t45 140v903q14 4 42.5 9t57.5 5q59 0 89 -22.5t30 -79.5v-833q0 -92 -27.5 -158t-75 -108t-112 -61.5t-139.5 -19.5q-115 0 -174.5 31t-59.5 92q0 31 12.5 54.5t22.5 35.5q35 -12 74 -21t80 -9z" />
<glyph unicode="K" horiz-adv-x="1185" d="M389 561v-559q-16 -4 -43 -10t-59 -6q-63 0 -91 23.5t-28 78.5v1155q16 4 44 9t58 5q59 0 89 -22.5t30 -79.5v-463l526 561q78 -2 113 -33.5t35 -74.5q0 -35 -18.5 -64.5t-53.5 -64.5l-389 -385q170 -174 298 -308.5t220 -218.5q-4 -57 -37.5 -88.5t-81.5 -31.5 q-49 0 -82.5 26.5t-68.5 61.5z" />
<glyph unicode="L" horiz-adv-x="1032" d="M287 -2q-53 0 -86 32.5t-33 86.5v1126q16 4 44 9t58 5q59 0 89 -22.5t30 -79.5v-973h555q10 -14 18.5 -36.5t8.5 -51.5q0 -47 -22.5 -71.5t-59.5 -24.5h-602v0z" />
<glyph unicode="M" horiz-adv-x="1607" d="M918 319q-16 -14 -45 -24t-66 -10q-43 0 -75 13t-44 42q-94 217 -162.5 385t-109.5 281h-10q-6 -145 -11.5 -267.5t-11.5 -239t-13.5 -237.5t-15.5 -260q-16 -6 -41.5 -11t-54.5 -5q-111 0 -111 90q0 27 3.5 94.5t8.5 160.5t12 205.5t15.5 228.5t16.5 227.5t16 205.5 q16 16 54 34.5t94 18.5q66 0 104.5 -23.5t60.5 -70.5q33 -72 68 -154.5t70 -167.5t67.5 -169t63.5 -158h10q39 102 79 202.5t78 192.5t71.5 174t62.5 148q23 10 55.5 18t67.5 8q68 0 101.5 -20.5t43.5 -59.5q8 -37 18.5 -121.5t20.5 -195.5t20.5 -234.5t18.5 -239.5t14 -213 t8 -153q-23 -14 -48 -21t-60 -7q-43 0 -75 18.5t-36 69.5q-8 139 -15 274t-13 256t-11.5 223.5t-9.5 173.5h-8q-39 -104 -105.5 -266t-170.5 -416z" />
<glyph unicode="N" horiz-adv-x="1361" d="M1194 29q-23 -18 -57.5 -30.5t-81.5 -12.5q-57 0 -99.5 21.5t-76.5 80.5l-338 588q-23 39 -46.5 82t-45 86t-41 83t-33.5 70l-10 -2q10 -106 14 -228t4 -230v-535q-14 -4 -42 -9t-56 -5q-61 0 -89 22.5t-28 75.5v1122q20 23 58 36t81 13q57 0 100.5 -20t77.5 -80 l340 -590q23 -39 45.5 -82t44 -86t41 -83t33.5 -70l8 2q-16 156 -18 308.5t-2 297.5v389q16 4 43 9t57 5q61 0 89 -22.5t28 -75.5v-1130v0z" />
<glyph unicode="O" horiz-adv-x="1419" d="M1317 623q0 -160 -46 -282t-128 -204t-192.5 -124t-241.5 -42t-243 42t-192.5 124t-127 204t-46.5 282t47.5 280.5t129 203.5t193.5 125t239 42q129 0 239.5 -42t192.5 -125t129 -203.5t47 -280.5zM1094 623q0 229 -104.5 349t-280.5 120q-172 0 -277.5 -121t-105.5 -348 q0 -229 104.5 -350t278.5 -121q176 0 280.5 121t104.5 350z" />
<glyph unicode="P" horiz-adv-x="1169" d="M389 428v-424q-16 -6 -43 -11t-59 -5q-63 0 -91 23.5t-28 78.5v1057q0 35 19.5 54.5t54.5 29.5q63 23 151 31t166 8q266 0 394 -113t128 -305q0 -193 -128 -308.5t-382 -115.5h-182zM557 606q141 0 222 61.5t81 184.5t-76.5 180.5t-220.5 57.5q-47 0 -93 -4.5t-83 -10.5 v-469h170z" />
<glyph unicode="Q" horiz-adv-x="1421" d="M1317 623q0 -236 -96.5 -387.5t-255.5 -217.5q66 -35 120 -61.5t103 -46t94 -36.5t92 -34q2 -14 2 -23.5v-17.5q0 -59 -32.5 -91t-92.5 -32q-74 0 -178 55.5t-229 149.5l-123 90h-12q-131 0 -243 42t-192.5 124t-127 204t-46.5 282t47.5 281.5t129 203.5t193.5 124 t239 42q129 0 239.5 -42t192.5 -124t129 -203.5t47 -281.5zM1094 623q0 229 -104.5 349t-280.5 120q-172 0 -277.5 -120t-105.5 -349t104.5 -349t278.5 -120q176 0 280.5 120t104.5 349z" />
<glyph unicode="R" horiz-adv-x="1216" d="M389 4q-16 -6 -43 -11t-59 -5q-63 0 -91 23.5t-28 78.5v1057q0 35 19.5 54.5t54.5 29.5q63 23 151 31t176 8q266 0 396.5 -107.5t130.5 -302.5q0 -135 -71 -230t-202 -143q49 -61 96.5 -121.5t89.5 -114.5t75.5 -98t54.5 -73q-10 -47 -45 -71.5t-76 -24.5q-49 0 -78 23.5 t-57 64.5l-265 381h-229v-449zM586 629q133 0 210.5 57t77.5 174q0 115 -78.5 172.5t-232.5 57.5q-47 0 -93 -4.5t-83 -10.5v-446h199z" />
<glyph unicode="S" horiz-adv-x="1087" d="M522 152q129 0 190.5 53t61.5 137q0 74 -47 119t-149 76l-154 47q-72 23 -130 52.5t-99 69t-62.5 94t-21.5 126.5q0 162 119.5 255t324.5 93q84 0 155.5 -13.5t124 -37t82 -55t29.5 -68.5q0 -35 -17.5 -60.5t-41.5 -42.5q-51 39 -134 67t-184 28q-113 0 -174 -45.5 t-61 -120.5q0 -61 43 -99.5t141 -66.5l119 -35q172 -51 267 -140t95 -243q0 -82 -31.5 -150.5t-91 -117.5t-148.5 -76t-202 -27q-94 0 -172 16.5t-134 43t-87 61.5t-31 74q0 41 25 69.5t57 43.5q49 -45 134 -86t204 -41z" />
<glyph unicode="T" horiz-adv-x="1089" d="M651 1063v-1059q-14 -6 -41.5 -11t-58.5 -5q-63 0 -90 23.5t-27 78.5v973h-362q-10 14 -17.5 36.5t-7.5 51.5q0 45 21.5 68.5t58.5 23.5h891q8 -12 15 -34.5t7 -49.5q0 -96 -79 -96h-310z" />
<glyph unicode="U" horiz-adv-x="1337" d="M1171 436q0 -104 -33.5 -190t-98 -147.5t-158 -94.5t-213.5 -33q-119 0 -212.5 33t-158 94.5t-98 147.5t-33.5 190v807q14 4 43 9t59 5q59 0 88 -22.5t29 -79.5v-706q0 -145 81 -221t202 -76q61 0 112 19t90 56t60.5 92.5t21.5 129.5v794q14 4 43 9t60 5q59 0 87.5 -22.5 t28.5 -79.5v-719v0z" />
<glyph unicode="V" horiz-adv-x="1222" d="M756 23q-16 -12 -53 -23.5t-82 -11.5q-51 0 -90 14t-54 43q-27 51 -61.5 133t-73.5 182.5t-79 212t-79 222t-71.5 215t-57.5 190.5q16 20 49 37.5t72 17.5q49 0 76 -22.5t43 -73.5q80 -250 156.5 -481.5t166.5 -472.5h11q39 111 82 236.5t85 257.5t80.5 267.5t71.5 266.5 q41 23 99 22q47 0 78.5 -23.5t31.5 -70.5q0 -35 -22.5 -120t-59.5 -196.5t-82 -237.5t-89 -240.5t-83.5 -206.5t-64.5 -137z" />
<glyph unicode="W" horiz-adv-x="1677" d="M727 936q18 10 48 17.5t65 7.5q113 0 135 -66q33 -104 62.5 -194.5t56 -175.5t52 -167t50.5 -170h10q27 135 50.5 262.5t47 254t44 257t41.5 271.5q39 23 94 22q49 0 80.5 -21.5t31.5 -68.5q0 -41 -11 -121.5t-28.5 -184t-42 -220.5t-51 -229.5t-54.5 -212t-52 -166.5 q-23 -16 -63 -27.5t-87 -11.5q-59 0 -100 17.5t-51 47.5q-18 49 -44 122t-53.5 158t-55.5 179t-54 189q-25 -92 -53.5 -189.5t-56 -187.5t-53.5 -168t-46 -131q-20 -14 -58 -25.5t-85 -11.5q-59 0 -101.5 18.5t-54.5 46.5q-18 41 -41 119t-48.5 177.5t-52 213t-50 227 t-44 220t-32.5 192.5q18 18 50 33.5t68 15.5q96 0 115 -96q27 -145 51.5 -270t47 -241t45 -228.5t49.5 -231.5h8q27 90 50.5 169t49 164t55 184.5t66.5 230.5z" />
<glyph unicode="X" horiz-adv-x="1216" d="M602 479l-346 -489q-10 -2 -21.5 -3t-23.5 -1q-61 0 -94 26.5t-33 71.5q0 35 15.5 64.5t43.5 64.5l320 418l-377 520q12 41 45 72.5t86 31.5q41 0 69.5 -21.5t59.5 -66.5l262 -383l330 463q10 2 26.5 4t32.5 2q57 0 87 -26.5t30 -67.5q0 -31 -16.5 -59.5t-42.5 -63.5 q-76 -100 -154 -199.5t-160 -203.5l394 -545q-10 -47 -43 -74.5t-86 -27.5q-39 0 -67 19.5t-58 66.5z" />
<glyph unicode="Y" horiz-adv-x="1140" d="M1094 1163q0 -45 -102.5 -228t-301.5 -486v-445q-16 -6 -44 -11t-56 -5q-63 0 -90 23.5t-27 76.5v358q-55 82 -116.5 177.5t-121 192.5t-111.5 190.5t-89 173.5q12 29 40.5 52t76.5 23q49 0 77.5 -23.5t59.5 -78.5q25 -43 63.5 -114.5t81.5 -148.5t82 -145.5t62 -105.5h8 q45 82 86 156.5t77.5 146.5t73.5 143.5t74 147.5q18 10 44 16t48 6q47 0 76 -24.5t29 -67.5z" />
<glyph unicode="Z" horiz-adv-x="1142" d="M987 1245q53 -43 53 -110q0 -35 -15 -65t-40 -62l-620 -826h663q10 -14 18.5 -36.5t8.5 -51.5q0 -47 -22.5 -70.5t-59.5 -23.5h-830q-23 18 -36 46t-13 63t15.5 66.5t40.5 64.5l622 823h-637q-10 14 -18 36.5t-8 51.5q0 94 84 94h794v0z" />
<glyph unicode="[" horiz-adv-x="569" d="M532 1337q8 -14 13.5 -34.5t5.5 -45.5q0 -84 -82 -83h-143v-1246h206q8 -16 13.5 -35.5t5.5 -44.5q0 -86 -82 -86h-238q-53 0 -77.5 30t-24.5 75v1368q0 45 24.5 73.5t77.5 28.5h301z" />
<glyph unicode="\" horiz-adv-x="708" d="M641 -80q-20 -18 -52 -32.5t-61 -14.5q-35 0 -59.5 15.5t-34.5 54.5l-379 1374q18 23 50 35t61 12q35 0 59.5 -14.5t34.5 -53.5z" />
<glyph unicode="]" horiz-adv-x="577" d="M37 -238q-8 16 -13.5 36t-5.5 44q0 86 82 86h144v1246h-207q-8 14 -13.5 34.5t-5.5 42.5q0 86 82 86h236q53 0 78.5 -28.5t25.5 -73.5v-1368q0 -45 -25.5 -75t-78.5 -30h-299z" />
<glyph unicode="^" horiz-adv-x="962" d="M375 1321q14 10 41.5 18.5t62.5 8.5q82 0 107 -43q27 -47 65.5 -123t78.5 -162t76 -170t56 -148q-14 -18 -40.5 -32.5t-57.5 -14.5q-41 0 -63.5 18.5t-45.5 65.5l-176 410h-12q-10 -27 -33.5 -81t-51.5 -120.5t-54.5 -138.5t-44.5 -131q-18 -10 -43 -17.5t-50 -7.5 q-37 0 -63.5 18.5t-26.5 59.5q0 18 16.5 63.5t43 103.5t58.5 125t62.5 126t55.5 105.5t39 66.5z" />
<glyph unicode="_" horiz-adv-x="976" d="M18 -289q-8 16 -13 36t-5 46q0 47 22.5 68.5t63.5 21.5h870q8 -16 14.5 -37.5t6.5 -46.5q0 -45 -22.5 -66.5t-63.5 -21.5h-873z" />
<glyph unicode="`" horiz-adv-x="618" d="M98 1305q-4 20 -4 32q0 45 28 72t68 27q55 0 95 -47l184 -230q-4 -45 -29.5 -68.5t-60.5 -23.5q-29 0 -47.5 10t-38.5 29z" />
<glyph unicode="a" horiz-adv-x="1046" d="M502 137q72 0 125 14.5t75 30.5v260l-223 -22q-94 -10 -141 -42t-47 -97q0 -68 51 -106t160 -38zM498 987q190 0 302.5 -83t112.5 -261v-477q0 -47 -21.5 -72.5t-57.5 -48.5q-53 -31 -137.5 -53.5t-194.5 -22.5q-199 0 -310.5 78t-111.5 229q0 135 87 207t251 88l284 29 v45q0 90 -58 131t-163 41q-82 0 -157.5 -22.5t-135.5 -51.5q-20 16 -34.5 40t-14.5 53q0 35 17.5 57t54.5 39q57 29 131 42t156 13z" />
<glyph unicode="b" horiz-adv-x="1146" d="M598 987q96 0 180 -31.5t145.5 -94t96.5 -158t35 -222.5q0 -129 -36 -225t-101.5 -158.5t-156.5 -94.5t-202 -32t-195.5 27t-138.5 61q-43 29 -61.5 57.5t-18.5 73.5v1139q14 4 41 10.5t58 6.5q59 0 86.5 -23t27.5 -76v-323q45 25 104.5 44t135.5 19zM563 815 q-66 0 -117 -21.5t-88 -50.5v-544q29 -20 80 -37t119 -17q125 0 203 82t78 254q0 174 -77 254t-198 80z" />
<glyph unicode="c" horiz-adv-x="985" d="M612 813q-66 0 -121 -21.5t-95 -64.5t-63.5 -105.5t-23.5 -144.5q0 -162 84 -247t219 -85q78 0 133.5 20.5t96.5 49.5q27 -16 43 -38.5t16 -55.5q0 -63 -83 -106.5t-218 -43.5q-113 0 -206 31t-160.5 94.5t-105.5 158.5t-38 222t40 223.5t108.5 160t161 95t194.5 31.5 q68 0 122 -12t93 -33.5t60.5 -49.5t21.5 -58q0 -29 -15.5 -52.5t-37.5 -36.5q-43 27 -95.5 47.5t-130.5 20.5z" />
<glyph unicode="d" horiz-adv-x="1142" d="M571 987q61 0 115.5 -13t95.5 -34v389q14 4 41 10.5t58 6.5q59 0 87.5 -23t28.5 -76v-1073q0 -43 -18 -70.5t-57 -52.5q-47 -31 -128 -55.5t-186 -24.5q-117 0 -213 30t-163.5 92.5t-104.5 157.5t-37 224q0 133 38 230.5t103.5 160t152.5 92t187 29.5zM784 760 q-35 23 -82 39t-104 16q-61 0 -113.5 -18.5t-91.5 -60.5t-61.5 -106.5t-22.5 -156.5q0 -172 81 -250t216 -78q61 0 103.5 13.5t74.5 31.5v570z" />
<glyph unicode="e" horiz-adv-x="1079" d="M307 371q29 -117 112 -173.5t212 -56.5q86 0 157.5 27t114.5 57q57 -33 58 -92q0 -35 -27 -64.5t-73 -51t-108.5 -34t-134.5 -12.5q-119 0 -216 33t-166.5 98.5t-107.5 161.5t-38 223q0 123 37 216.5t100.5 156t149.5 95t184 32.5t179 -31.5t139.5 -88t90 -134.5 t31.5 -170q0 -51 -24.5 -74.5t-71.5 -31.5zM561 821q-113 0 -187.5 -75.5t-78.5 -217.5l504 72q-8 92 -67.5 156.5t-170.5 64.5z" />
<glyph unicode="f" horiz-adv-x="835" d="M352 899h387q8 -12 15.5 -33.5t7.5 -50.5q0 -86 -78 -86h-326v-725q-14 -6 -39.5 -11t-56.5 -5q-59 0 -88 22.5t-29 75.5v934q0 94 28 161.5t79 110.5t124 63.5t161 20.5q127 0 194.5 -32.5t67.5 -92.5q0 -29 -11.5 -50t-27.5 -38q-39 16 -90.5 28.5t-104.5 12.5 q-115 0 -164 -45t-49 -147v-113z" />
<glyph unicode="g" horiz-adv-x="1116" d="M768 90q-39 -25 -95.5 -41t-133.5 -16q-90 0 -171 25.5t-142.5 82t-97.5 146.5t-36 221q0 119 36 208t100.5 149.5t153.5 91t198 30.5q100 0 185 -25.5t138 -60.5q35 -23 54.5 -51.5t19.5 -69.5v-807q0 -102 -36 -175.5t-98.5 -120t-148.5 -68t-184 -21.5 q-104 0 -180 20.5t-111 41.5q-63 39 -63 102q0 35 14 58.5t37 37.5q47 -33 125 -59.5t166 -26.5q129 0 199.5 52.5t70.5 169.5v106zM569 201q70 0 117 20.5t80 48.5v496q-31 18 -76 33.5t-106 15.5q-125 0 -201 -75.5t-76 -229.5q0 -84 20.5 -143.5t55.5 -96.5t83 -53 t103 -16z" />
<glyph unicode="h" horiz-adv-x="1146" d="M793 598q0 113 -60.5 165t-159.5 52q-66 0 -120 -21.5t-95 -52.5v-737q-14 -6 -39.5 -11t-56.5 -5q-59 0 -88 22.5t-29 75.5v1243q14 4 41 10.5t58 6.5q59 0 86.5 -23t27.5 -76v-323q47 25 109.5 44t140.5 19q178 0 288 -94t110 -287v-602q-14 -6 -41 -11t-56 -5 q-61 0 -88.5 22.5t-27.5 75.5v512v0z" />
<glyph unicode="i" horiz-adv-x="516" d="M365 4q-14 -6 -40 -11t-59 -5q-59 0 -87.5 22.5t-28.5 75.5v866q16 4 41.5 10.5t58.5 6.5q59 0 87 -22.5t28 -78.5v-864zM127 1253q0 53 37 89t94 36t92 -35.5t35 -89.5q0 -53 -35 -89t-92 -36t-94 36t-37 89z" />
<glyph unicode="j" horiz-adv-x="522" d="M373 -72q0 -92 -24.5 -154.5t-61.5 -101.5t-80 -55t-80 -16q-61 0 -90 35.5t-33 89.5q37 16 65.5 34.5t48 45t30 63.5t10.5 90v993q14 4 40.5 10.5t57.5 6.5q59 0 88 -22.5t29 -78.5v-940zM133 1253q0 53 36 89t93 36t92 -35.5t35 -89.5q0 -53 -35 -89t-92 -36t-93 36 t-36 89z" />
<glyph unicode="k" horiz-adv-x="1036" d="M358 4q-14 -6 -39.5 -11t-56.5 -5q-59 0 -88 22.5t-29 75.5v1243q14 4 41 10.5t58 6.5q59 0 86.5 -23t27.5 -76v-686l422 416q66 -2 104 -30.5t38 -74.5q0 -37 -25 -65.5t-72 -69.5l-272 -239l422 -385q-6 -59 -36 -93t-83 -34q-41 0 -72.5 20.5t-68.5 61.5l-357 376 v-440v0z" />
<glyph unicode="l" horiz-adv-x="524" d="M272 -12q-59 0 -87.5 22.5t-28.5 75.5v1243q14 4 40.5 10.5t57.5 6.5q59 0 88 -23t29 -76v-1243q-16 -6 -42 -11t-57 -5z" />
<glyph unicode="m" horiz-adv-x="1689" d="M1333 641q0 90 -50 132t-136 42q-57 0 -109.5 -21.5t-95.5 -58.5q4 -16 6 -34.5t2 -36.5v-660q-14 -6 -40.5 -11t-55.5 -5q-59 0 -88 22.5t-29 75.5v555q0 90 -51 132t-137 42q-57 0 -108.5 -18.5t-86.5 -40.5v-752q-14 -6 -39.5 -11t-56.5 -5q-59 0 -88 22.5t-29 75.5 v676q0 47 18.5 75.5t61.5 57.5q59 39 149.5 65.5t182.5 26.5q96 0 173 -26.5t126 -77.5q57 45 136 74.5t183 29.5q80 0 150 -19.5t120 -61.5t78.5 -105.5t28.5 -151.5v-645q-16 -6 -41.5 -11t-56.5 -5q-59 0 -88 22.5t-29 75.5v555v0z" />
<glyph unicode="n" horiz-adv-x="1144" d="M788 621q0 100 -56 147t-152 47q-72 0 -128.5 -18.5t-97.5 -40.5v-752q-14 -6 -39.5 -11t-56.5 -5q-59 0 -88 22.5t-29 75.5v676q0 47 18.5 75.5t61.5 57.5q57 35 149.5 63.5t209.5 28.5q199 0 311.5 -89t112.5 -269v-625q-14 -6 -41 -11t-58 -5q-59 0 -88 22.5t-29 75.5 v535v0z" />
<glyph unicode="o" d="M1061 479q0 -117 -35 -211t-97.5 -159.5t-152.5 -101.5t-201 -36t-200.5 36t-152 101.5t-97.5 159.5t-35 211t35 211t98.5 159.5t153.5 101.5t198 36q109 0 199 -36t153.5 -102.5t98.5 -159.5t35 -210zM575 815q-123 0 -194.5 -88t-71.5 -248t70 -247t196 -87 q127 0 197 87t70 247q0 158 -71 247t-196 89z" />
<glyph unicode="p" horiz-adv-x="1140" d="M575 -29q-66 0 -123 13.5t-98 33.5v-385q-14 -6 -39.5 -11t-56.5 -5q-59 0 -88 22.5t-29 77.5v1059q0 45 16.5 73t61.5 54q57 33 140 58.5t188 25.5q106 0 198.5 -29.5t160 -91t106.5 -157t39 -226.5q0 -129 -36 -224t-98.5 -159.5t-150 -96.5t-191.5 -32zM543 145 q133 0 210.5 81t77.5 257q0 90 -22.5 153.5t-60 103.5t-90 57.5t-111.5 17.5q-66 0 -112 -15.5t-81 -35.5v-563q35 -25 82.5 -40.5t106.5 -15.5z" />
<glyph unicode="q" horiz-adv-x="1140" d="M999 -373q-14 -6 -40.5 -11t-57.5 -5q-59 0 -88 22.5t-29 77.5v309q-41 -20 -94 -34.5t-123 -14.5q-104 0 -191 30t-150.5 92.5t-99.5 157.5t-36 224t38 225.5t105.5 160t160.5 95t204 31.5q104 0 189 -25.5t139 -58.5q35 -23 54 -51.5t19 -71.5v-1153zM598 145 q57 0 105.5 16.5t82.5 41.5v563q-31 18 -76.5 33.5t-105.5 15.5q-63 0 -116.5 -19.5t-93.5 -60.5t-62.5 -105.5t-22.5 -154.5q0 -174 78 -252t211 -78z" />
<glyph unicode="r" horiz-adv-x="798" d="M354 4q-14 -6 -39.5 -11t-56.5 -5q-59 0 -88 22.5t-29 75.5v672q0 51 20.5 82.5t65.5 60.5q59 37 151.5 61.5t203.5 24.5q180 0 180 -102q0 -25 -8.5 -46.5t-18.5 -37.5q-20 4 -51 8t-66 4q-82 0 -149.5 -17.5t-114.5 -43.5v-748z" />
<glyph unicode="s" horiz-adv-x="940" d="M856 264q0 -137 -102.5 -215t-296.5 -78q-80 0 -147.5 12.5t-116 35t-75 53t-26.5 67.5q0 31 15.5 57.5t42.5 43.5q57 -37 130.5 -68t172.5 -31q92 0 141 32t49 91q0 51 -34 82t-99 47l-139 37q-139 37 -205 100.5t-66 174.5q0 59 25 111t73 90t119.5 59.5t163.5 21.5 q74 0 134.5 -11t104.5 -30.5t68.5 -48.5t24.5 -61q0 -33 -14.5 -56.5t-36.5 -38.5q-37 23 -109.5 49.5t-156.5 26.5q-86 0 -135.5 -29.5t-49.5 -82.5q0 -41 28 -68t95 -43l119 -31q156 -41 229.5 -110.5t73.5 -188.5z" />
<glyph unicode="t" horiz-adv-x="776" d="M356 281q0 -74 43 -105t121 -31q35 0 74 10.5t68 24.5q14 -16 25 -36.5t11 -49.5q0 -53 -54 -88t-165 -35q-154 0 -245 69t-91 226v957q14 4 41 10t58 6q59 0 86.5 -22.5t27.5 -75.5v-203h318q8 -12 15 -34.5t7 -47.5q0 -88 -75 -88h-265v-487v0z" />
<glyph unicode="u" horiz-adv-x="1144" d="M141 956q14 4 41 9.5t58 5.5q59 0 86.5 -22.5t27.5 -78.5v-505q0 -119 62.5 -169.5t173.5 -50.5q72 0 121 14.5t77 30.5v766q16 4 42 9.5t57 5.5q59 0 88 -22.5t29 -78.5v-690q0 -45 -14.5 -73.5t-57.5 -55.5q-53 -31 -140 -55.5t-204 -24.5q-211 0 -329 93.5t-118 295.5 v596z" />
<glyph unicode="v" horiz-adv-x="1042" d="M872 979q45 0 74 -21.5t29 -68.5q0 -25 -15.5 -83t-42 -136t-59.5 -168t-69.5 -179.5t-72.5 -170t-67 -138.5q-16 -10 -49 -19t-74 -9q-100 0 -131 55q-29 51 -76 160.5t-96 239.5t-95 260t-73 225q18 23 49 38t66 15q47 0 74.5 -21.5t44.5 -74.5l112 -353 q12 -39 28.5 -86t33 -95t33 -92t26.5 -75h10q70 193 133.5 388.5t110.5 385.5q39 23 96 23z" />
<glyph unicode="w" horiz-adv-x="1527" d="M768 664q-25 -90 -52.5 -181.5t-55 -177.5t-53 -159.5t-46.5 -129.5q-20 -14 -49 -22t-72 -8q-47 0 -84 14t-49 45q-25 49 -57.5 157.5t-65 237.5t-63.5 260t-49 230q16 18 45.5 33.5t66.5 15.5q92 0 111 -105q18 -104 39.5 -210.5t42 -199.5t38 -166t25.5 -110h9 q10 37 31.5 108t49 162t60.5 196.5t67 209.5q47 29 113 29q47 0 79 -16.5t42 -47.5q33 -102 63.5 -201.5t56 -185.5t45 -151.5t29.5 -102.5h11q41 176 86 373t75 393q20 10 45 17.5t50 7.5q45 0 72.5 -20.5t27.5 -65.5q0 -27 -12.5 -90.5t-34 -148.5t-47 -180t-51 -183 t-50 -162t-40.5 -113q-16 -12 -49 -21t-74 -9q-109 0 -127 51q-18 49 -43 120.5t-51.5 154.5t-53 173.5t-51.5 178.5z" />
<glyph unicode="x" horiz-adv-x="1009" d="M135 195q59 76 120.5 148.5t121.5 145.5q-78 98 -150.5 188.5t-150.5 184.5q10 51 39.5 82t74.5 31q43 0 68 -22.5t53 -59.5q47 -63 97.5 -134t103.5 -141q70 90 133.5 173t130.5 182q10 2 27 2q57 0 90 -26.5t33 -67.5q0 -31 -13.5 -56.5t-46.5 -66.5 q-55 -68 -113.5 -135.5t-113.5 -135.5l307 -395q-6 -49 -36.5 -77.5t-78.5 -28.5q-45 0 -72.5 24.5t-62.5 67.5q-47 66 -97 136.5t-97 137.5q-68 -90 -135.5 -181t-130.5 -183h-33q-63 0 -95 26.5t-32 65.5q0 27 12 50.5t47 64.5z" />
<glyph unicode="y" horiz-adv-x="1036" d="M324 223q-51 100 -125 284.5t-144 418.5q18 23 49 38t66 15q45 0 73.5 -21.5t47.5 -74.5q55 -166 114.5 -327t131.5 -333h8q31 66 62.5 154t62 186.5t57.5 199.5t47 193q20 10 42 16.5t50 6.5q45 0 76 -21.5t31 -66.5q0 -53 -27.5 -163t-73 -242t-102.5 -267t-115 -239 q-102 -180 -185 -274.5t-157 -94.5q-57 0 -91 31.5t-42 78.5q33 29 72 70t78 88t73.5 97.5t59.5 97.5q-35 10 -67.5 39.5t-71.5 109.5z" />
<glyph unicode="z" horiz-adv-x="966" d="M129 0q-43 37 -43 94q0 29 13.5 56.5t31.5 50.5l475 585h-485q-8 14 -16.5 37t-8.5 49q0 45 21.5 65.5t56.5 20.5h651q45 -35 45 -96q0 -29 -12 -54.5t-33 -49.5l-473 -588h514q8 -12 15.5 -34.5t7.5 -49.5q0 -45 -21.5 -65.5t-56.5 -20.5h-682z" />
<glyph unicode="{" horiz-adv-x="606" d="M293 559q66 -35 100.5 -100.5t34.5 -169.5v-256q0 -72 28.5 -101.5t84.5 -33.5q6 -29 6 -50q0 -96 -103 -96q-92 0 -152.5 64.5t-60.5 193.5v242q0 201 -149 227q-14 35 -14 80q0 39 14 78q150 27 149 225v230q0 129 60.5 192.5t154.5 63.5q100 0 101 -95q0 -25 -6 -49 q-55 -4 -84 -33.5t-29 -101.5v-242q0 -104 -34.5 -170.5t-100.5 -97.5z" />
<glyph unicode="|" horiz-adv-x="530" d="M362 -362q-39 -14 -90 -15q-51 0 -77.5 20.5t-26.5 77.5v1661q16 4 38.5 9.5t51.5 5.5q53 0 78.5 -21.5t25.5 -79.5v-1658z" />
<glyph unicode="}" horiz-adv-x="606" d="M313 559q-66 31 -100.5 97.5t-34.5 170.5v242q0 72 -28.5 101.5t-83.5 33.5q-6 25 -7 49q0 94 101 95q94 0 154.5 -63.5t60.5 -192.5v-230q0 -199 149 -225q14 -39 15 -78q0 -45 -15 -80q-150 -27 -149 -227v-242q0 -129 -60.5 -193.5t-152.5 -64.5q-102 0 -103 96 q0 20 7 50q55 4 83.5 33.5t28.5 101.5v256q0 104 34.5 169.5t100.5 100.5z" />
<glyph unicode="~" horiz-adv-x="948" d="M647 596q53 0 78 28.5t41 59.5q55 0 96 -31.5t41 -85.5q0 -78 -58.5 -119.5t-150.5 -41.5q-59 0 -111.5 12t-99.5 27.5t-92 27.5t-88 12q-53 0 -79.5 -30.5t-41.5 -59.5q-55 0 -95 33t-40 86q0 78 60.5 120t146.5 42q59 0 112.5 -12.5t101.5 -27.5t92 -27.5t87 -12.5z " />
<glyph horiz-adv-x="0" />
<glyph unicode="&#xa1;" horiz-adv-x="538" d="M162 -236q0 57 2 152.5t5 204t8 218.5t13 196q14 10 38 16t46 6q39 0 62.5 -13.5t28.5 -47.5q6 -55 11 -157.5t8 -218.5t5 -231.5t2 -199.5q-55 -33 -121 -33q-51 0 -79.5 26.5t-28.5 81.5zM412 831q0 -59 -37 -97t-101 -38q-66 0 -101.5 38t-35.5 97t36 98.5t101 39.5 q63 0 100.5 -39.5t37.5 -98.5z" />
<glyph unicode="&#xa2;" horiz-adv-x="983" d="M612 813q-131 0 -218 -86t-87 -250q0 -162 84 -247t219 -85q80 0 135.5 20.5t96.5 49.5q27 -16 42 -38.5t15 -55.5q0 -59 -69.5 -99t-186.5 -49v-182q-12 -4 -34.5 -8t-49.5 -4q-109 0 -108 90v119q-166 35 -264.5 156.5t-98.5 332.5q0 104 27.5 187.5t76 144.5t115 102 t144.5 60v200q12 4 35.5 8.5t50.5 4.5q106 0 106 -90v-109q113 -10 180.5 -53t67.5 -98q0 -29 -16.5 -52.5t-38.5 -36.5q-41 27 -93.5 47.5t-130.5 20.5z" />
<glyph unicode="&#xa3;" horiz-adv-x="1032" d="M281 455q0 14 -1 31.5t-4 39.5h-96q-31 0 -52.5 19.5t-21.5 66.5q0 27 7.5 47.5t13.5 36.5h133q-4 43 -7 83t-3 73q0 111 33.5 190.5t92 131t137.5 76t167 24.5q135 0 200.5 -43t65.5 -98q0 -23 -13 -50.5t-36 -44.5q-43 29 -87 43.5t-108 14.5q-121 0 -180 -64.5 t-59 -200.5q0 -61 6 -135h358q8 -16 14.5 -36.5t6.5 -47.5q0 -47 -20.5 -66.5t-53.5 -19.5h-289q2 -23 3 -41t1 -34q0 -94 -25.5 -163t-72.5 -116h559q20 -35 21 -86q0 -43 -20.5 -64.5t-53.5 -21.5h-692q-43 0 -74 28.5t-31 82.5v15t2 15q45 23 78 48.5t55.5 62.5t34 86 t11.5 117z" />
<glyph unicode="&#xa4;" horiz-adv-x="1097" d="M942 606q0 -78 -21.5 -141.5t-62.5 -110.5l117 -137q-18 -41 -46 -61.5t-59 -20.5q-29 0 -54 23.5t-48 52.5l-39 47q-84 -37 -182 -37q-100 0 -182 35l-107 -135q-45 8 -78 30.5t-33 63.5q0 27 14.5 52.5t39.5 54.5l28 36q-78 96 -77 248q0 150 79 248l-110 133 q18 41 46 60.5t58 19.5q29 0 53.5 -23.5t47.5 -52.5l32 -39q88 39 187 39q109 0 194 -43l105 133q43 -8 75.5 -29.5t32.5 -62.5q0 -27 -15 -53.5t-38 -54.5l-31 -39q74 -97 74 -236zM752 606q0 111 -56.5 170.5t-148.5 59.5q-94 0 -151.5 -59.5t-57.5 -170.5t57.5 -170 t151.5 -59q92 0 148.5 59t56.5 170z" />
<glyph unicode="&#xa5;" horiz-adv-x="1146" d="M1059 1174q0 -18 -19.5 -59.5t-53.5 -102t-81 -137t-102 -164.5h225q8 -16 14.5 -36t6.5 -42q0 -37 -18.5 -55.5t-45.5 -18.5h-856q-10 12 -16.5 32.5t-6.5 43.5q0 41 18.5 58.5t45.5 17.5h190q-86 129 -162.5 258t-123.5 227q16 23 44.5 44.5t69.5 21.5q47 0 73 -22.5 t58 -76.5l259 -438h10q43 72 76.5 132.5t64.5 118.5t63.5 121.5t73.5 141.5q49 23 97 23q45 0 70.5 -24.5t25.5 -63.5zM688 276v-274q-14 -4 -42 -9t-56 -5q-119 0 -119 100v188h-342q-10 12 -16.5 34t-6.5 44q0 43 18.5 58.5t43.5 15.5h858q6 -12 12 -33.5t6 -42.5 q0 -39 -17 -57.5t-44 -18.5h-295z" />
<glyph unicode="&#xa6;" horiz-adv-x="600" d="M362 637q-39 -14 -90 -14t-77.5 20.5t-26.5 77.5v661q39 14 90 15q53 0 78.5 -20.5t25.5 -78.5v-661zM362 -362q-39 -14 -90 -15q-51 0 -77.5 20.5t-26.5 77.5v662q39 14 90 14q53 0 78.5 -20.5t25.5 -77.5v-661z" />
<glyph unicode="&#xa7;" horiz-adv-x="1056" d="M938 578q0 -66 -29.5 -118t-72.5 -87q49 -33 75.5 -80t26.5 -117q0 -133 -108.5 -206.5t-319.5 -73.5q-84 0 -155.5 12t-124 34.5t-82 53.5t-29.5 67q0 35 15.5 58.5t41.5 40.5q66 -41 145.5 -70t184.5 -29q221 0 221 115q0 47 -36 71.5t-118 41.5l-167 35 q-129 27 -207 89t-78 187q0 68 28.5 116t79.5 81q-47 33 -73.5 81t-26.5 119q0 131 103.5 203t285.5 72q76 0 140.5 -10.5t112.5 -31t75.5 -48t27.5 -60.5t-14 -55t-35 -37q-49 27 -129 50.5t-168 23.5t-138 -27.5t-50 -83.5q0 -47 33 -69.5t96 -34.5l156 -29 q143 -27 228 -94t85 -190zM463 483q70 -16 106.5 -23t54 -11.5t22.5 -5.5t16 -3q35 23 53 54.5t18 74.5q0 98 -160 129l-167 33q-4 0 -6.5 1t-6.5 1q-68 -45 -67 -125q0 -96 137 -125z" />
<glyph unicode="&#xa8;" horiz-adv-x="765" d="M319 1255q0 -49 -33.5 -83.5t-86.5 -34.5t-86 34.5t-33 83.5q0 47 32.5 82t86.5 35q53 0 86.5 -35t33.5 -82zM698 1255q0 -49 -33.5 -83.5t-86.5 -34.5t-87 34.5t-34 83.5q0 47 33.5 82t87.5 35q53 0 86.5 -35t33.5 -82z" />
<glyph unicode="&#xa9;" horiz-adv-x="1460" d="M100 616q0 133 45 250t128 203t198 135t256 49q139 0 256 -49t201 -135t130 -202.5t46 -250.5q0 -131 -46 -244.5t-130 -196.5t-201 -131t-256 -48q-141 0 -256 48t-198 131t-128 196.5t-45 244.5zM727 1122q-111 0 -199 -37.5t-149.5 -104.5t-94 -160t-32.5 -204 q0 -109 32.5 -198.5t94 -154t149.5 -100.5t199 -36t199 36t149.5 100.5t94 154.5t32.5 198q0 111 -32.5 204t-94 160t-149.5 104.5t-199 37.5zM782 834q-39 0 -74.5 -12.5t-63.5 -38t-44 -65.5t-16 -93q0 -102 57 -155.5t145 -53.5q51 0 83 13t57 30q43 -31 43 -76 q0 -39 -52.5 -73t-150.5 -34q-74 0 -137.5 23t-110.5 68t-74.5 109.5t-27.5 150.5q0 90 30.5 155.5t79.5 108.5t109.5 63.5t120.5 20.5q90 0 146 -32t56 -83q0 -18 -12 -37.5t-28 -29.5q-27 14 -60 27.5t-76 13.5z" />
<glyph unicode="&#xaa;" horiz-adv-x="722" d="M350 737q39 0 73 8.5t50 18.5v147l-127 -12q-125 -12 -125 -76q0 -86 129 -86zM344 1272q123 0 202 -51.5t79 -180.5v-311q0 -23 -15.5 -39t-38.5 -31q-86 -45 -221 -45q-129 0 -204.5 49.5t-75.5 151.5q0 92 59 139t176 58l168 16v14q0 59 -36 82t-107 23 q-53 0 -105.5 -14.5t-87.5 -36.5q-14 10 -25.5 28.5t-11.5 40.5q0 27 12.5 41.5t37.5 26.5q35 16 88 27.5t106 11.5z" />
<glyph unicode="&#xab;" horiz-adv-x="1019" d="M520 174q0 -39 -24.5 -69.5t-75.5 -30.5q-31 0 -57.5 18.5t-51.5 44.5l-219 238q-25 35 -24 84q0 41 11 63.5t27 38.5l297 305q51 -12 77 -37.5t26 -58.5q0 -31 -14.5 -54.5t-51.5 -60.5l-194 -196zM942 174q0 -39 -24.5 -69.5t-73.5 -30.5q-33 0 -59.5 18.5t-49.5 44.5 l-221 238q-23 33 -22 84q0 41 10 63.5t26 38.5l299 305q49 -12 75 -37.5t26 -58.5q0 -31 -14.5 -54.5t-51.5 -60.5l-192 -196z" />
<glyph unicode="&#xac;" horiz-adv-x="1101" d="M909 821q45 0 72 -25.5t27 -72.5v-350q-39 -14 -95 -15q-53 0 -79.5 20.5t-26.5 80.5v192h-694q-8 16 -14.5 37t-6.5 45q0 45 22.5 66.5t61.5 21.5h733z" />
<glyph unicode="&#xad;" horiz-adv-x="776" d="M119 442q-10 16 -16.5 38t-6.5 48q0 45 23.5 67.5t64.5 22.5h475q6 -16 13.5 -37.5t7.5 -45.5q0 -45 -22.5 -69t-63.5 -24h-475z" />
<glyph unicode="&#xae;" horiz-adv-x="1267" d="M106 770q0 106 38 199.5t106.5 164t166 111.5t216.5 41q117 0 213 -41t166.5 -111.5t109.5 -163.5t39 -200q0 -106 -39 -200.5t-109.5 -164t-166.5 -110.5t-213 -41q-119 0 -216.5 41t-166 110.5t-106.5 164t-38 200.5zM240 770q0 -86 27.5 -159.5t79.5 -127t124 -83 t162 -29.5q88 0 160.5 29.5t125 83t80 127t27.5 159.5t-27.5 158.5t-80 127t-125 84t-160.5 29.5q-90 0 -162 -29.5t-124 -84t-79.5 -127t-27.5 -158.5zM578 709v-162q-10 -2 -25.5 -3t-34.5 -1q-29 0 -44 9t-15 42v381q0 27 41 37q29 8 56.5 10t59.5 2q104 0 158.5 -41 t54.5 -117q0 -53 -28.5 -88t-69.5 -51l113 -141q-4 -20 -23.5 -32.5t-42.5 -12.5q-25 0 -41 12t-32 35l-82 121h-45zM633 801q76 0 76 67q0 31 -22.5 47.5t-61.5 16.5q-14 0 -25.5 -1t-21.5 -3v-127h55z" />
<glyph unicode="&#xaf;" horiz-adv-x="692" d="M76 1163q-8 16 -16.5 38t-8.5 46q0 47 21.5 66.5t56.5 19.5h487q25 -35 25 -84q0 -47 -20.5 -66.5t-57.5 -19.5h-487z" />
<glyph unicode="&#xb0;" horiz-adv-x="737" d="M672 993q0 -66 -23.5 -117t-64.5 -86.5t-96.5 -55t-116.5 -19.5q-66 0 -122 20.5t-96 57t-62.5 88t-22.5 112.5q0 63 23.5 115.5t64.5 88.5t96 55.5t117 19.5q61 0 116.5 -19.5t97.5 -55.5t65.5 -87t23.5 -117zM369 1130q-51 0 -91 -34.5t-40 -102.5t38.5 -103.5 t92.5 -35.5q53 0 92 36t39 103q0 68 -40 102.5t-91 34.5z" />
<glyph unicode="&#xb1;" horiz-adv-x="1120" d="M662 821h313q6 -16 12 -36.5t6 -47.5q0 -88 -86 -88h-245v-319q-16 -4 -40 -9.5t-51 -5.5q-53 0 -78.5 20.5t-25.5 80.5v233h-322q-8 16 -13 37t-5 45q0 45 22.5 67.5t63.5 22.5h254v309q16 6 39.5 11.5t52.5 5.5q51 0 77 -21.5t26 -78.5v-226zM145 0q-8 16 -13 36.5 t-5 45.5q0 45 22.5 67.5t63.5 22.5h762q6 -16 12 -36.5t6 -47.5q0 -88 -86 -88h-762z" />
<glyph unicode="&#xb2;" horiz-adv-x="567" d="M254 1430q111 0 175.5 -54.5t64.5 -152.5q0 -63 -36 -121t-118 -123l-125 -102h279q14 -25 14 -58q0 -59 -59 -59h-369q-33 29 -33 74q0 31 8 50t23 31l170 152q53 47 77.5 83t24.5 71q0 45 -29.5 67.5t-76.5 22.5q-41 0 -76 -14.5t-62 -34.5q-16 10 -26 25.5t-10 41.5 q0 45 53 73t131 28z" />
<glyph unicode="&#xb3;" horiz-adv-x="565" d="M268 1153q39 0 62.5 19.5t23.5 54.5q0 39 -31.5 61.5t-89.5 22.5q-45 0 -81.5 -13.5t-61.5 -29.5q-16 12 -26.5 28.5t-10.5 40.5q0 43 58.5 68t140.5 25q117 0 180.5 -51.5t63.5 -137.5q0 -47 -26 -85t-71 -56q47 -16 77 -58.5t30 -99.5q0 -100 -73 -149.5t-183 -49.5 q-96 0 -156.5 31t-60.5 76q0 25 12 43t33 29q27 -20 65.5 -39t96.5 -19q57 0 91 22.5t34 67.5q0 37 -26 60.5t-71 23.5h-110q-8 10 -13.5 25.5t-5.5 32.5q0 35 19 57h110z" />
<glyph unicode="&#xb4;" horiz-adv-x="610" d="M377 1444q61 -2 96 -32t35 -64q0 -35 -14.5 -56.5t-49.5 -52.5l-188 -176q-53 0 -84 27.5t-31 60.5q0 20 9.5 36.5t25.5 33.5z" />
<glyph unicode="&#xb5;" horiz-adv-x="1146" d="M358 365q0 -119 63.5 -169.5t170.5 -50.5q72 0 122 14.5t79 30.5v766q14 4 39.5 9.5t58.5 5.5q59 0 88 -22.5t29 -78.5v-690q0 -45 -14.5 -73.5t-57.5 -55.5q-47 -29 -126 -54.5t-189 -25.5q-92 0 -163 23.5t-118 73.5q8 -66 13 -146t5 -164v-120q-14 -6 -39.5 -12.5 t-56.5 -6.5q-59 0 -89 22.5t-30 75.5v1239q14 4 41 9.5t58 5.5q59 0 87.5 -22.5t28.5 -78.5v-505v0z" />
<glyph unicode="&#xb6;" horiz-adv-x="964" d="M713 1255q55 0 85.5 -18t30.5 -84v-1294q-12 -4 -39.5 -9.5t-56.5 -5.5q-55 0 -87 20.5t-32 80.5v1128h-135v-534q0 -27 -28.5 -43.5t-90.5 -16.5q-59 0 -118.5 22.5t-106.5 68.5t-75.5 117t-28.5 169q0 100 34.5 176t94 125t137.5 73.5t162 24.5h254z" />
<glyph unicode="&#xb7;" horiz-adv-x="344" d="M37 526q0 59 36 98.5t99 39.5q66 0 100.5 -39t34.5 -99q0 -59 -34.5 -98t-100.5 -39q-63 0 -99 39t-36 98z" />
<glyph unicode="&#xb8;" horiz-adv-x="399" d="M236 47q63 -41 89.5 -98.5t26.5 -122.5q0 -100 -62.5 -160.5t-166.5 -60.5q-59 0 -94 25.5t-35 72.5q0 12 2 26.5t8 26.5h29q72 0 103.5 31t31.5 84q0 29 -13.5 66.5t-43.5 68.5z" />
<glyph unicode="&#xb9;" horiz-adv-x="438" d="M195 1264l-113 -50q-20 10 -36.5 29t-16.5 47q0 45 53 68l149 63h27q76 0 76 -80v-577q-12 -4 -29.5 -8t-36.5 -4q-35 0 -54 13t-19 54v445z" />
<glyph unicode="&#xba;" horiz-adv-x="784" d="M700 942q0 -160 -85 -244t-224 -84t-225 85t-86 245t87 244t224 84q139 0 224 -86t85 -244zM391 1143q-72 0 -112.5 -52.5t-40.5 -146.5q0 -96 40.5 -147.5t112.5 -51.5q70 0 111 50.5t41 146.5q0 94 -40 147.5t-112 53.5z" />
<glyph unicode="&#xbb;" horiz-adv-x="1019" d="M500 764q0 39 24.5 70.5t73.5 31.5q33 0 59.5 -18.5t49.5 -44.5l221 -238q25 -35 24 -84q0 -41 -11 -64.5t-28 -39.5l-299 -303q-49 12 -74.5 37.5t-25.5 58.5q0 31 14.5 53.5t51.5 61.5l192 196zM78 764q0 39 24.5 70.5t73.5 31.5q33 0 59.5 -18.5t49.5 -44.5l221 -238 q10 -16 16 -37.5t6 -46.5q0 -41 -10 -64.5t-29 -39.5l-299 -303q-49 12 -73.5 37.5t-24.5 58.5q0 31 13.5 53.5t52.5 61.5l192 196z" />
<glyph unicode="&#xbc;" horiz-adv-x="1249" d="M182 1100l-112 -49q-20 10 -37 28.5t-17 46.5q0 45 54 68l149 63h27q76 0 76 -79v-578q-12 -4 -30 -8t-36 -4q-35 0 -54.5 13t-19.5 54v445zM985 141h-283q-45 20 -45 76q0 37 23 68l266 362q35 10 76 10q39 0 68.5 -17t29.5 -56v-326h94q12 -23 13 -55 q0 -33 -15.5 -47.5t-37.5 -14.5h-54v-139q-27 -10 -65 -10q-35 0 -52.5 12t-17.5 53v84zM989 377q0 27 1 64.5t3 72.5l-176 -256h172v119zM928 1251q47 -4 72.5 -22.5t25.5 -48.5q0 -23 -9 -43.5t-28 -49.5l-743 -1099q-96 10 -101 71q0 23 10.5 44.5t30.5 50.5z" />
<glyph unicode="&#xbd;" horiz-adv-x="1280" d="M182 1100l-112 -49q-20 10 -37 28.5t-17 46.5q0 45 54 68l149 63h27q76 0 76 -79v-578q-12 -4 -30 -8t-36 -4q-35 0 -54.5 13t-19.5 54v445zM975 670q111 0 175 -54.5t64 -152.5q0 -63 -35.5 -120.5t-117.5 -123.5l-125 -102h278q14 -25 15 -58q0 -59 -60 -59h-368 q-33 29 -33 74q0 31 8 50t23 32l170 151q53 47 77.5 83t24.5 71q0 45 -29.5 67.5t-76.5 22.5q-41 0 -76 -14.5t-62 -34.5q-16 10 -26 25.5t-10 41.5q0 45 53 73t131 28zM928 1251q47 -4 72.5 -22.5t25.5 -48.5q0 -23 -9 -43.5t-28 -49.5l-743 -1099q-96 10 -101 71 q0 23 10.5 44.5t30.5 50.5z" />
<glyph unicode="&#xbe;" horiz-adv-x="1347" d="M268 991q39 0 62.5 19.5t23.5 54.5q0 39 -31.5 61.5t-89.5 22.5q-45 0 -81.5 -13.5t-61.5 -29.5q-16 12 -26.5 28.5t-10.5 41.5q0 43 58.5 67.5t140.5 24.5q117 0 180.5 -51.5t63.5 -137.5q0 -47 -26 -85t-71 -56q47 -16 77 -58t30 -100q0 -100 -73 -149t-183 -49 q-96 0 -156.5 30.5t-60.5 75.5q0 25 12 43.5t33 28.5q27 -20 65.5 -39t96.5 -19q57 0 91 23t34 68q0 37 -26 60.5t-71 23.5h-110q-8 10 -13.5 25.5t-5.5 31.5q0 35 19 57h110zM1083 141h-282q-45 20 -45 76q0 37 22 68l266 362q35 10 76 10q39 0 69 -17t30 -56v-326h94 q12 -23 12 -55q0 -33 -15.5 -47.5t-37.5 -14.5h-53v-139q-27 -10 -66 -10q-35 0 -52.5 12t-17.5 53v84zM1087 377q0 27 1.5 64.5t3.5 72.5l-177 -256h172v119zM1032 1251q47 -4 72.5 -22.5t25.5 -48.5q0 -23 -9 -43.5t-27 -49.5l-744 -1099q-96 10 -100 71q0 23 10 44.5 t31 50.5z" />
<glyph unicode="&#xbf;" horiz-adv-x="962" d="M709 526q23 -18 40 -47.5t17 -66.5q0 -72 -90 -95l-148 -36q-113 -29 -172 -86.5t-59 -149.5q0 -82 62.5 -142.5t195.5 -60.5q82 0 163 24.5t128 61.5q27 -20 42 -45.5t15 -60.5q0 -37 -27.5 -67.5t-75.5 -52t-116 -34t-147 -12.5q-106 0 -192.5 28.5t-147 80t-93 123 t-32.5 155.5q0 174 108.5 279.5t325.5 156.5zM743 831q0 -59 -36.5 -98t-100.5 -39q-63 0 -100 39t-37 98t37 98.5t100 39.5t100 -39.5t37 -98.5z" />
<glyph unicode="&#xc0;" horiz-adv-x="1232" d="M862 311h-500l-100 -313q-18 -8 -38.5 -12t-49.5 -4q-51 0 -84 22.5t-33 67.5q0 23 6.5 44t16.5 48q27 86 75 222t102 287.5t109.5 298t96.5 251.5q20 12 63 23t88 11q59 0 106.5 -16t63.5 -57q45 -117 98.5 -265.5t106.5 -306t102.5 -309t88.5 -274.5q-18 -20 -48 -33.5 t-71 -13.5q-55 0 -80 21.5t-41 72.5zM612 1067q-20 -55 -44.5 -125t-51.5 -146.5t-53.5 -155.5t-50.5 -153h403q-27 82 -54.5 165t-53 159t-48 142.5t-36.5 113.5h-11zM340 1556q-2 8 -2 16.5v14.5q0 45 25.5 72t66.5 27q53 0 94 -48l174 -198q-4 -43 -28.5 -65.5 t-59.5 -22.5q-29 0 -47 10t-41 29z" />
<glyph unicode="&#xc1;" horiz-adv-x="1232" d="M862 311h-500l-100 -313q-18 -8 -38.5 -12t-49.5 -4q-51 0 -84 22.5t-33 67.5q0 23 6.5 44t16.5 48q27 86 75 222t102 287.5t109.5 298t96.5 251.5q20 12 63 23t88 11q59 0 106.5 -16t63.5 -57q45 -117 98.5 -265.5t106.5 -306t102.5 -309t88.5 -274.5q-18 -20 -48 -33.5 t-71 -13.5q-55 0 -80 21.5t-41 72.5zM612 1067q-20 -55 -44.5 -125t-51.5 -146.5t-53.5 -155.5t-50.5 -153h403q-27 82 -54.5 165t-53 159t-48 142.5t-36.5 113.5h-11zM776 1694q55 -2 86 -29t31 -63q0 -33 -14.5 -54.5t-49.5 -50.5l-182 -145q-51 2 -78.5 23.5t-27.5 54.5 q0 39 34 71z" />
<glyph unicode="&#xc2;" horiz-adv-x="1232" d="M625 1528q-39 -39 -87.5 -87t-101.5 -98q-43 4 -71.5 27t-28.5 57q0 31 16.5 52.5t48.5 50.5l105 100q61 55 121 56q39 0 67.5 -15.5t59.5 -46.5l166 -184q0 -43 -24 -66.5t-65 -23.5q-29 0 -52 15t-58 54zM862 311h-500l-100 -313q-18 -8 -38.5 -12t-49.5 -4 q-51 0 -84 22.5t-33 67.5q0 23 6.5 44t16.5 48q27 86 75 222t102 287.5t109.5 298t96.5 251.5q20 12 63 23t88 11q59 0 106.5 -16t63.5 -57q45 -117 98.5 -265.5t106.5 -306t102.5 -309t88.5 -274.5q-18 -20 -48 -33.5t-71 -13.5q-55 0 -80 21.5t-41 72.5zM612 1067 q-20 -55 -44.5 -125t-51.5 -146.5t-53.5 -155.5t-50.5 -153h403q-27 82 -54.5 165t-53 159t-48 142.5t-36.5 113.5h-11z" />
<glyph unicode="&#xc3;" horiz-adv-x="1232" d="M862 311h-500l-100 -313q-18 -8 -38.5 -12t-49.5 -4q-51 0 -84 22.5t-33 67.5q0 23 6.5 44t16.5 48q27 86 75 222t102 287.5t109.5 298t96.5 251.5q20 12 63 23t88 11q59 0 106.5 -16t63.5 -57q45 -117 98.5 -265.5t106.5 -306t102.5 -309t88.5 -274.5q-18 -20 -48 -33.5 t-71 -13.5q-55 0 -80 21.5t-41 72.5zM612 1067q-20 -55 -44.5 -125t-51.5 -146.5t-53.5 -155.5t-50.5 -153h403q-27 82 -54.5 165t-53 159t-48 142.5t-36.5 113.5h-11zM473 1642q43 0 80 -10t70.5 -23.5t63.5 -23.5t56 -10q39 0 58.5 23.5t27.5 52.5h13q45 0 77.5 -24.5 t32.5 -76.5q0 -68 -45 -104.5t-116 -36.5q-45 0 -85 10.5t-74 23.5t-63.5 23.5t-54.5 10.5q-39 0 -57.5 -23.5t-26.5 -54.5h-12q-45 0 -79 25.5t-34 76.5q0 68 51 104.5t117 36.5z" />
<glyph unicode="&#xc4;" horiz-adv-x="1232" d="M862 311h-500l-100 -313q-18 -8 -38.5 -12t-49.5 -4q-51 0 -84 22.5t-33 67.5q0 23 6.5 44t16.5 48q27 86 75 222t102 287.5t109.5 298t96.5 251.5q20 12 63 23t88 11q59 0 106.5 -16t63.5 -57q45 -117 98.5 -265.5t106.5 -306t102.5 -309t88.5 -274.5q-18 -20 -48 -33.5 t-71 -13.5q-55 0 -80 21.5t-41 72.5zM612 1067q-20 -55 -44.5 -125t-51.5 -146.5t-53.5 -155.5t-50.5 -153h403q-27 82 -54.5 165t-53 159t-48 142.5t-36.5 113.5h-11zM549 1518q0 -49 -34 -84t-87 -35t-86 34.5t-33 84.5q0 47 33 81.5t86 34.5t87 -34.5t34 -81.5zM928 1518 q0 -49 -34 -84t-87 -35t-87 34.5t-34 84.5q0 47 34 81.5t87 34.5t87 -34.5t34 -81.5z" />
<glyph unicode="&#xc5;" horiz-adv-x="1232" d="M862 311h-500l-100 -313q-18 -8 -38.5 -12t-49.5 -4q-51 0 -84 22.5t-33 67.5q0 23 6.5 44t16.5 48q27 86 75 222t102 287.5t109.5 298t96.5 251.5q20 12 63 23t88 11q59 0 106.5 -16t63.5 -57q45 -117 98.5 -265.5t106.5 -306t102.5 -309t88.5 -274.5q-18 -20 -48 -33.5 t-71 -13.5q-55 0 -80 21.5t-41 72.5zM612 1067q-20 -55 -44.5 -125t-51.5 -146.5t-53.5 -155.5t-50.5 -153h403q-27 82 -54.5 165t-53 159t-48 142.5t-36.5 113.5h-11zM391 1530q0 84 61.5 140t170.5 56q111 0 172 -56t61 -140t-61.5 -139.5t-171.5 -55.5 q-109 0 -170.5 55.5t-61.5 139.5zM537 1530q0 -37 24.5 -58.5t61.5 -21.5q39 0 64.5 21.5t25.5 58.5t-25.5 58.5t-64.5 21.5q-37 0 -61.5 -21.5t-24.5 -58.5z" />
<glyph unicode="&#xc6;" horiz-adv-x="1746" d="M936 -2q-53 0 -84 32.5t-31 86.5v194h-401l-158 -315q-18 -4 -33.5 -9t-44.5 -5q-57 0 -83.5 22.5t-26.5 63.5q0 39 30 98q20 41 58.5 113.5t86.5 164t103.5 194.5t110.5 206.5t108.5 200t96.5 174.5q18 14 53 24t82 10q33 0 68.5 -8t60.5 -24q33 23 80 22h602 q10 -12 17 -34.5t7 -49.5q0 -45 -21.5 -69.5t-57.5 -24.5h-525v-340h518q10 -12 17.5 -34.5t7.5 -49.5q0 -47 -21.5 -69.5t-58.5 -22.5h-463v-373h590q8 -12 16.5 -34.5t8.5 -49.5q0 -47 -21.5 -70.5t-58.5 -23.5h-633zM510 487h311v574h-12z" />
<glyph unicode="&#xc7;" horiz-adv-x="1193" d="M1096 1096q0 -35 -19.5 -61.5t-46.5 -39.5q-53 35 -121.5 66t-173.5 31q-90 0 -164.5 -31t-129 -90.5t-85 -147.5t-30.5 -202q0 -231 114.5 -350t302.5 -119q100 0 174 28.5t127 65.5q23 -14 42.5 -41t19.5 -62q0 -29 -15.5 -53t-50.5 -45q-35 -23 -91 -41t-134 -27 q43 -68 43 -151q0 -100 -62.5 -160.5t-166.5 -60.5q-59 0 -94 25.5t-35 72.5q0 12 2 26.5t8 26.5h29q72 0 103.5 31t31.5 84q0 23 -8.5 50.5t-24.5 53.5q-117 10 -215 55.5t-171 126.5t-114 196.5t-41 267.5q0 160 49.5 282.5t132.5 204.5t193.5 124t235.5 42 q88 0 158.5 -15.5t120.5 -40t78 -57t28 -65.5z" />
<glyph unicode="&#xc8;" horiz-adv-x="1114" d="M305 -2q-53 0 -86 32.5t-33 86.5v1009q0 53 33 85t86 32h678q10 -12 17.5 -34.5t7.5 -49.5q0 -45 -21.5 -69.5t-58.5 -24.5h-525v-340h519q10 -12 17 -34.5t7 -49.5q0 -47 -21.5 -69.5t-58.5 -22.5h-463v-373h590q8 -12 16.5 -34.5t8.5 -49.5q0 -47 -21.5 -70.5 t-58.5 -23.5h-633zM365 1556q-2 8 -2.5 16.5t-0.5 14.5q0 45 26 72t67 27q53 0 94 -48l174 -198q-4 -43 -28.5 -65.5t-59.5 -22.5q-29 0 -47.5 10t-40.5 29z" />
<glyph unicode="&#xc9;" horiz-adv-x="1114" d="M305 -2q-53 0 -86 32.5t-33 86.5v1009q0 53 33 85t86 32h678q10 -12 17.5 -34.5t7.5 -49.5q0 -45 -21.5 -69.5t-58.5 -24.5h-525v-340h519q10 -12 17 -34.5t7 -49.5q0 -47 -21.5 -69.5t-58.5 -22.5h-463v-373h590q8 -12 16.5 -34.5t8.5 -49.5q0 -47 -21.5 -70.5 t-58.5 -23.5h-633zM762 1694q55 -2 86 -29t31 -63q0 -33 -14.5 -54.5t-49.5 -50.5l-182 -145q-51 2 -79 23.5t-28 54.5q0 39 35 71z" />
<glyph unicode="&#xca;" horiz-adv-x="1114" d="M305 -2q-53 0 -86 32.5t-33 86.5v1009q0 53 33 85t86 32h678q10 -12 17.5 -34.5t7.5 -49.5q0 -45 -21.5 -69.5t-58.5 -24.5h-525v-340h519q10 -12 17 -34.5t7 -49.5q0 -47 -21.5 -69.5t-58.5 -22.5h-463v-373h590q8 -12 16.5 -34.5t8.5 -49.5q0 -47 -21.5 -70.5 t-58.5 -23.5h-633zM604 1528l-87 -87t-101 -98q-43 4 -72 27t-29 57q0 31 16.5 52.5t49.5 50.5l104 100q61 55 121 56q39 0 67.5 -15.5t59.5 -46.5l166 -184q0 -43 -23.5 -66.5t-64.5 -23.5q-29 0 -52.5 15t-58.5 54z" />
<glyph unicode="&#xcb;" horiz-adv-x="1114" d="M305 -2q-53 0 -86 32.5t-33 86.5v1009q0 53 33 85t86 32h678q10 -12 17.5 -34.5t7.5 -49.5q0 -45 -21.5 -69.5t-58.5 -24.5h-525v-340h519q10 -12 17 -34.5t7 -49.5q0 -47 -21.5 -69.5t-58.5 -22.5h-463v-373h590q8 -12 16.5 -34.5t8.5 -49.5q0 -47 -21.5 -70.5 t-58.5 -23.5h-633zM541 1505q0 -49 -34 -84t-87 -35t-86 35t-33 84q0 47 33 82t86 35t87 -35t34 -82zM920 1505q0 -49 -34 -84t-87 -35t-87 35t-34 84q0 47 33.5 82t87.5 35q53 0 87 -35t34 -82z" />
<glyph unicode="&#xcc;" horiz-adv-x="561" d="M389 4q-14 -6 -42 -11t-58 -5q-63 0 -91 23.5t-28 78.5v1153q16 4 44 9t58 5q59 0 88 -22.5t29 -79.5v-1151zM-6 1556q-2 8 -2 16.5v14.5q0 45 25.5 72t66.5 27q53 0 94 -48l174 -198q-4 -43 -28.5 -65.5t-59.5 -22.5q-29 0 -47 10t-41 29z" />
<glyph unicode="&#xcd;" horiz-adv-x="561" d="M389 4q-14 -6 -42 -11t-58 -5q-63 0 -91 23.5t-28 78.5v1153q16 4 44 9t58 5q59 0 88 -22.5t29 -79.5v-1151zM426 1694q55 -2 86 -29t31 -63q0 -33 -14.5 -54.5t-49.5 -50.5l-182 -145q-51 2 -79 23.5t-28 54.5q0 39 35 71z" />
<glyph unicode="&#xce;" horiz-adv-x="561" d="M389 4q-14 -6 -42 -11t-58 -5q-63 0 -91 23.5t-28 78.5v1153q16 4 44 9t58 5q59 0 88 -22.5t29 -79.5v-1151zM281 1528q-39 -39 -87.5 -87t-101.5 -98q-43 4 -71.5 27t-28.5 57q0 31 16.5 52.5t48.5 50.5l105 100q61 55 121 56q39 0 67.5 -15.5t59.5 -46.5l165 -184 q0 -43 -23.5 -66.5t-64.5 -23.5q-29 0 -52 15t-58 54z" />
<glyph unicode="&#xcf;" horiz-adv-x="561" d="M389 4q-14 -6 -42 -11t-58 -5q-63 0 -91 23.5t-28 78.5v1153q16 4 44 9t58 5q59 0 88 -22.5t29 -79.5v-1151zM209 1505q0 -49 -34 -84t-87 -35t-86 35t-33 84q0 47 33 82t86 35t87 -35t34 -82zM588 1505q0 -49 -34 -84t-87 -35t-87 35t-34 84q0 47 34 82t87 35t87 -35 t34 -82z" />
<glyph unicode="&#xd0;" horiz-adv-x="1406" d="M1305 633q0 -166 -47.5 -290t-134.5 -206t-209.5 -122t-272.5 -40q-66 0 -154 6.5t-163 30.5q-94 31 -95 111v412h-178q-10 14 -17 35.5t-7 50.5q0 45 21.5 68.5t57.5 23.5h123v436q0 35 19.5 54.5t54.5 29.5q72 23 156 30t164 7q152 0 277.5 -39t215.5 -119 t139.5 -199.5t49.5 -279.5zM1079 631q0 121 -34.5 208t-96 142t-143.5 82t-176 27q-109 0 -180 -15v-362h282q8 -14 16.5 -36t8.5 -48q0 -47 -21.5 -70.5t-58.5 -23.5h-227v-363q41 -10 91 -13t101 -3q213 0 325.5 119.5t112.5 355.5z" />
<glyph unicode="&#xd1;" horiz-adv-x="1361" d="M1194 29q-23 -18 -57.5 -30.5t-81.5 -12.5q-57 0 -99.5 21.5t-76.5 80.5l-338 588q-23 39 -46.5 82t-45 86t-41 83t-33.5 70l-10 -2q10 -106 14 -228t4 -230v-535q-14 -4 -42 -9t-56 -5q-61 0 -89 22.5t-28 75.5v1122q20 23 58 36t81 13q57 0 100.5 -20t77.5 -80 l340 -590q23 -39 45.5 -82t44 -86t41 -83t33.5 -70l8 2q-16 156 -18 308.5t-2 297.5v389q16 4 43 9t57 5q61 0 89 -22.5t28 -75.5v-1130zM512 1642q43 0 80 -10t70.5 -23.5t63.5 -23.5t56 -10q39 0 58.5 23.5t27.5 52.5h13q45 0 77.5 -24.5t32.5 -76.5q0 -68 -45 -104.5 t-117 -36.5q-45 0 -84.5 10.5t-73.5 23.5t-63.5 23.5t-54.5 10.5q-39 0 -57.5 -23.5t-26.5 -54.5h-12q-45 0 -79 25.5t-34 76.5q0 68 51 104.5t117 36.5z" />
<glyph unicode="&#xd2;" horiz-adv-x="1419" d="M1317 623q0 -160 -46 -282t-128 -204t-192.5 -124t-241.5 -42t-243 42t-192.5 124t-127 204t-46.5 282t47.5 280.5t129 203.5t193.5 125t239 42q129 0 239.5 -42t192.5 -125t129 -203.5t47 -280.5zM1094 623q0 229 -104.5 349t-280.5 120q-172 0 -277.5 -121t-105.5 -348 q0 -229 104.5 -350t278.5 -121q176 0 280.5 121t104.5 350zM438 1556q-2 8 -2 16.5v14.5q0 45 25.5 72t66.5 27q53 0 95 -48l174 -198q-4 -43 -29 -65.5t-59 -22.5q-29 0 -47.5 10t-40.5 29z" />
<glyph unicode="&#xd3;" horiz-adv-x="1419" d="M1317 623q0 -160 -46 -282t-128 -204t-192.5 -124t-241.5 -42t-243 42t-192.5 124t-127 204t-46.5 282t47.5 280.5t129 203.5t193.5 125t239 42q129 0 239.5 -42t192.5 -125t129 -203.5t47 -280.5zM1094 623q0 229 -104.5 349t-280.5 120q-172 0 -277.5 -121t-105.5 -348 q0 -229 104.5 -350t278.5 -121q176 0 280.5 121t104.5 350zM870 1694q55 -2 86 -29t31 -63q0 -33 -14.5 -54.5t-48.5 -50.5l-183 -145q-51 2 -78.5 23.5t-27.5 54.5q0 39 35 71z" />
<glyph unicode="&#xd4;" horiz-adv-x="1419" d="M1317 623q0 -160 -46 -282t-128 -204t-192.5 -124t-241.5 -42t-243 42t-192.5 124t-127 204t-46.5 282t47.5 280.5t129 203.5t193.5 125t239 42q129 0 239.5 -42t192.5 -125t129 -203.5t47 -280.5zM1094 623q0 229 -104.5 349t-280.5 120q-172 0 -277.5 -121t-105.5 -348 q0 -229 104.5 -350t278.5 -121q176 0 280.5 121t104.5 350zM709 1528q-39 -39 -87.5 -87t-101.5 -98q-43 4 -71.5 27t-28.5 57q0 31 16.5 52.5t48.5 50.5l105 100q61 55 121 56q39 0 67.5 -15.5t59.5 -46.5l166 -184q0 -43 -24 -66.5t-65 -23.5q-29 0 -52 15t-58 54z" />
<glyph unicode="&#xd5;" horiz-adv-x="1419" d="M1317 623q0 -160 -46 -282t-128 -204t-192.5 -124t-241.5 -42t-243 42t-192.5 124t-127 204t-46.5 282t47.5 280.5t129 203.5t193.5 125t239 42q129 0 239.5 -42t192.5 -125t129 -203.5t47 -280.5zM1094 623q0 229 -104.5 349t-280.5 120q-172 0 -277.5 -121t-105.5 -348 q0 -229 104.5 -350t278.5 -121q176 0 280.5 121t104.5 350zM553 1642q43 0 80 -10t70.5 -23.5t63.5 -23.5t56 -10q39 0 58.5 23.5t27.5 52.5h13q45 0 77.5 -24.5t32.5 -76.5q0 -68 -45 -104.5t-117 -36.5q-45 0 -85 10.5t-73.5 23.5t-63.5 23.5t-54 10.5q-39 0 -57.5 -23.5 t-26.5 -54.5h-12q-45 0 -79 25.5t-34 76.5q0 68 51 104.5t117 36.5z" />
<glyph unicode="&#xd6;" horiz-adv-x="1419" d="M1317 623q0 -160 -46 -282t-128 -204t-192.5 -124t-241.5 -42t-243 42t-192.5 124t-127 204t-46.5 282t47.5 280.5t129 203.5t193.5 125t239 42q129 0 239.5 -42t192.5 -125t129 -203.5t47 -280.5zM1094 623q0 229 -104.5 349t-280.5 120q-172 0 -277.5 -121t-105.5 -348 q0 -229 104.5 -350t278.5 -121q176 0 280.5 121t104.5 350zM637 1505q0 -49 -34 -84t-87 -35t-86 35t-33 84q0 47 33 82t86 35t87 -35t34 -82zM1016 1505q0 -49 -34 -84t-87 -35t-87 35t-34 84q0 47 34 82t87 35t87 -35t34 -82z" />
<glyph unicode="&#xd7;" horiz-adv-x="1017" d="M641 590l274 -299q-12 -41 -40.5 -68.5t-69.5 -27.5q-20 0 -41 11t-35 27l-219 246l-289 -295q-41 12 -76.5 40t-35.5 67q0 37 43 76l235 233l-278 295q10 35 38.5 67.5t67.5 32.5q23 0 41 -11t31 -26l231 -251l277 288q35 -10 66.5 -37.5t31.5 -68.5q0 -39 -41 -76z" />
<glyph unicode="&#xd8;" horiz-adv-x="1419" d="M1317 623q0 -160 -46 -282t-128 -204t-192.5 -124t-241.5 -42q-223 0 -383 123l-121 -129q-57 12 -85 40t-28 61q0 29 15.5 51t48.5 55l51 53q-51 78 -79 177.5t-28 220.5q0 160 47.5 280.5t129 203.5t193.5 125t239 42q104 0 198 -30t172 -89l115 127q49 -12 81 -38.5 t32 -59.5q0 -23 -15.5 -47.5t-46.5 -59.5l-45 -47q55 -80 86 -181t31 -226zM1098 623q0 72 -13.5 134t-35.5 115l-584 -634q94 -86 244 -86q176 0 282.5 121t106.5 350zM322 623q0 -143 43 -244l579 633q-98 80 -235 80q-172 0 -279.5 -121t-107.5 -348z" />
<glyph unicode="&#xd9;" horiz-adv-x="1337" d="M1171 436q0 -104 -33.5 -190t-98 -147.5t-158 -94.5t-213.5 -33q-119 0 -212.5 33t-158 94.5t-98 147.5t-33.5 190v807q14 4 43 9t59 5q59 0 88 -22.5t29 -79.5v-706q0 -145 81 -221t202 -76q61 0 112 19t90 56t60.5 92.5t21.5 129.5v794q14 4 43 9t60 5q59 0 87.5 -22.5 t28.5 -79.5v-719zM381 1556q-2 8 -2 16.5v14.5q0 45 25.5 72t66.5 27q53 0 94 -48l174 -198q-4 -43 -28.5 -65.5t-59.5 -22.5q-29 0 -47 10t-41 29z" />
<glyph unicode="&#xda;" horiz-adv-x="1337" d="M1171 436q0 -104 -33.5 -190t-98 -147.5t-158 -94.5t-213.5 -33q-119 0 -212.5 33t-158 94.5t-98 147.5t-33.5 190v807q14 4 43 9t59 5q59 0 88 -22.5t29 -79.5v-706q0 -145 81 -221t202 -76q61 0 112 19t90 56t60.5 92.5t21.5 129.5v794q14 4 43 9t60 5q59 0 87.5 -22.5 t28.5 -79.5v-719zM825 1694q55 -2 86 -29t31 -63q0 -33 -14.5 -54.5t-48.5 -50.5l-183 -145q-51 2 -78.5 23.5t-27.5 54.5q0 39 35 71z" />
<glyph unicode="&#xdb;" horiz-adv-x="1337" d="M1171 436q0 -104 -33.5 -190t-98 -147.5t-158 -94.5t-213.5 -33q-119 0 -212.5 33t-158 94.5t-98 147.5t-33.5 190v807q14 4 43 9t59 5q59 0 88 -22.5t29 -79.5v-706q0 -145 81 -221t202 -76q61 0 112 19t90 56t60.5 92.5t21.5 129.5v794q14 4 43 9t60 5q59 0 87.5 -22.5 t28.5 -79.5v-719zM678 1528l-87 -87t-102 -98q-43 4 -71.5 27t-28.5 57q0 31 16.5 52.5t49.5 50.5l104 100q61 55 121 56q39 0 67.5 -15.5t59.5 -46.5l166 -184q0 -43 -23.5 -66.5t-64.5 -23.5q-29 0 -52.5 15t-58.5 54z" />
<glyph unicode="&#xdc;" horiz-adv-x="1337" d="M1171 436q0 -104 -33.5 -190t-98 -147.5t-158 -94.5t-213.5 -33q-119 0 -212.5 33t-158 94.5t-98 147.5t-33.5 190v807q14 4 43 9t59 5q59 0 88 -22.5t29 -79.5v-706q0 -145 81 -221t202 -76q61 0 112 19t90 56t60.5 92.5t21.5 129.5v794q14 4 43 9t60 5q59 0 87.5 -22.5 t28.5 -79.5v-719zM596 1505q0 -49 -34 -84t-87 -35t-86 35t-33 84q0 47 33 82t86 35t87 -35t34 -82zM975 1505q0 -49 -34 -84t-87 -35t-87 35t-34 84q0 47 34 82t87 35t87 -35t34 -82z" />
<glyph unicode="&#xdd;" horiz-adv-x="1140" d="M1094 1163q0 -45 -102.5 -228t-301.5 -486v-445q-16 -6 -44 -11t-56 -5q-63 0 -90 23.5t-27 76.5v358q-55 82 -116.5 177.5t-121 192.5t-111.5 190.5t-89 173.5q12 29 40.5 52t76.5 23q49 0 77.5 -23.5t59.5 -78.5q25 -43 63.5 -114.5t81.5 -148.5t82 -145.5t62 -105.5h8 q45 82 86 156.5t77.5 146.5t73.5 143.5t74 147.5q18 10 44 16t48 6q47 0 76 -24.5t29 -67.5zM711 1694q55 -2 85.5 -29t30.5 -63q0 -33 -14 -54.5t-49 -50.5l-182 -145q-51 2 -79 23.5t-28 54.5q0 39 35 71z" />
<glyph unicode="&#xde;" horiz-adv-x="1179" d="M166 1243q14 4 43 9t57 5q59 0 89 -23.5t30 -76.5v-125h229q238 0 354.5 -109.5t116.5 -295.5q0 -184 -117.5 -296t-353.5 -112h-229v-217q-14 -4 -43 -9t-57 -5q-63 0 -91 23.5t-28 76.5v1155zM385 399h190q137 0 214 55.5t77 172.5t-76.5 171t-214.5 54h-190v-453z" />
<glyph unicode="&#xdf;" horiz-adv-x="1208" d="M365 -2q-14 -4 -41 -9t-56 -5q-59 0 -88.5 23.5t-29.5 76.5v877q0 102 32.5 180t91 130t137 78.5t169.5 26.5q94 0 174 -27.5t138 -82t91 -134t33 -186.5q0 -80 -72 -108l-84 -37q-47 -23 -66.5 -45.5t-19.5 -59.5q0 -35 21.5 -62.5t76.5 -58.5q63 -35 110.5 -67.5 t80.5 -69.5t49 -81t16 -101q0 -145 -98 -218t-252 -73q-121 0 -189.5 37t-68.5 98q0 31 14.5 57.5t43.5 39.5q35 -27 79.5 -44.5t104.5 -17.5q68 0 108.5 34t40.5 87q0 51 -31.5 86t-115.5 82q-104 53 -156.5 116.5t-52.5 157.5q0 86 46 142.5t132 91.5l68 29 q0 104 -61.5 170.5t-159.5 66.5q-88 0 -151.5 -57.5t-63.5 -182.5v-960z" />
<glyph unicode="&#xe0;" horiz-adv-x="1046" d="M502 137q72 0 125 14.5t75 30.5v260l-223 -22q-94 -10 -141 -42t-47 -97q0 -68 51 -106t160 -38zM498 987q190 0 302.5 -83t112.5 -261v-477q0 -47 -21.5 -72.5t-57.5 -48.5q-53 -31 -137.5 -53.5t-194.5 -22.5q-199 0 -310.5 78t-111.5 229q0 135 87 207t251 88l284 29 v45q0 90 -58 131t-163 41q-82 0 -157.5 -22.5t-135.5 -51.5q-20 16 -34.5 40t-14.5 53q0 35 17.5 57t54.5 39q57 29 131 42t156 13zM240 1305q-4 20 -4 32q0 45 27.5 72t68.5 27q55 0 94 -47l184 -230q-4 -45 -29.5 -68.5t-60.5 -23.5q-29 0 -47 10t-39 29z" />
<glyph unicode="&#xe1;" horiz-adv-x="1046" d="M502 137q72 0 125 14.5t75 30.5v260l-223 -22q-94 -10 -141 -42t-47 -97q0 -68 51 -106t160 -38zM498 987q190 0 302.5 -83t112.5 -261v-477q0 -47 -21.5 -72.5t-57.5 -48.5q-53 -31 -137.5 -53.5t-194.5 -22.5q-199 0 -310.5 78t-111.5 229q0 135 87 207t251 88l284 29 v45q0 90 -58 131t-163 41q-82 0 -157.5 -22.5t-135.5 -51.5q-20 16 -34.5 40t-14.5 53q0 35 17.5 57t54.5 39q57 29 131 42t156 13zM647 1444q61 -2 96 -32t35 -64q0 -35 -14 -56.5t-49 -52.5l-189 -176q-53 0 -83.5 27.5t-30.5 60.5q0 20 9 36.5t25 33.5z" />
<glyph unicode="&#xe2;" horiz-adv-x="1046" d="M502 137q72 0 125 14.5t75 30.5v260l-223 -22q-94 -10 -141 -42t-47 -97q0 -68 51 -106t160 -38zM498 987q190 0 302.5 -83t112.5 -261v-477q0 -47 -21.5 -72.5t-57.5 -48.5q-53 -31 -137.5 -53.5t-194.5 -22.5q-199 0 -310.5 78t-111.5 229q0 135 87 207t251 88l284 29 v45q0 90 -58 131t-163 41q-82 0 -157.5 -22.5t-135.5 -51.5q-20 16 -34.5 40t-14.5 53q0 35 17.5 57t54.5 39q57 29 131 42t156 13zM514 1270q-49 -57 -92 -102.5t-84 -94.5q-49 2 -80 25.5t-31 58.5q0 27 15.5 47.5t42.5 48.5l108 119q31 27 58.5 42.5t62.5 15.5 q39 0 66.5 -14.5t60.5 -53.5l164 -197q0 -35 -20.5 -61.5t-63.5 -26.5q-29 0 -48.5 14.5t-39.5 36.5z" />
<glyph unicode="&#xe3;" horiz-adv-x="1046" d="M502 137q72 0 125 14.5t75 30.5v260l-223 -22q-94 -10 -141 -42t-47 -97q0 -68 51 -106t160 -38zM498 987q190 0 302.5 -83t112.5 -261v-477q0 -47 -21.5 -72.5t-57.5 -48.5q-53 -31 -137.5 -53.5t-194.5 -22.5q-199 0 -310.5 78t-111.5 229q0 135 87 207t251 88l284 29 v45q0 90 -58 131t-163 41q-82 0 -157.5 -22.5t-135.5 -51.5q-20 16 -34.5 40t-14.5 53q0 35 17.5 57t54.5 39q57 29 131 42t156 13zM352 1370q43 0 80 -10t71 -23.5t63.5 -23.5t56.5 -10q39 0 58 23.5t28 51.5h12q45 0 77.5 -24.5t32.5 -75.5q0 -68 -45 -104.5t-116 -36.5 q-45 0 -85 10t-74 23.5t-63.5 23.5t-54.5 10q-39 0 -57.5 -23.5t-26.5 -54.5h-12q-45 0 -79 26t-34 77q0 68 51 104.5t117 36.5z" />
<glyph unicode="&#xe4;" horiz-adv-x="1046" d="M502 137q72 0 125 14.5t75 30.5v260l-223 -22q-94 -10 -141 -42t-47 -97q0 -68 51 -106t160 -38zM498 987q190 0 302.5 -83t112.5 -261v-477q0 -47 -21.5 -72.5t-57.5 -48.5q-53 -31 -137.5 -53.5t-194.5 -22.5q-199 0 -310.5 78t-111.5 229q0 135 87 207t251 88l284 29 v45q0 90 -58 131t-163 41q-82 0 -157.5 -22.5t-135.5 -51.5q-20 16 -34.5 40t-14.5 53q0 35 17.5 57t54.5 39q57 29 131 42t156 13zM455 1247q0 -49 -34 -84t-87 -35t-86 35t-33 84q0 47 33 82t86 35t87 -35t34 -82zM834 1247q0 -49 -34 -84t-87 -35t-87 35t-34 84 q0 47 33.5 82t87.5 35q53 0 87 -35t34 -82z" />
<glyph unicode="&#xe5;" horiz-adv-x="1046" d="M502 137q72 0 125 14.5t75 30.5v260l-223 -22q-94 -10 -141 -42t-47 -97q0 -68 51 -106t160 -38zM498 987q190 0 302.5 -83t112.5 -261v-477q0 -47 -21.5 -72.5t-57.5 -48.5q-53 -31 -137.5 -53.5t-194.5 -22.5q-199 0 -310.5 78t-111.5 229q0 135 87 207t251 88l284 29 v45q0 90 -58 131t-163 41q-82 0 -157.5 -22.5t-135.5 -51.5q-20 16 -34.5 40t-14.5 53q0 35 17.5 57t54.5 39q57 29 131 42t156 13zM295 1270q0 86 60.5 143t168.5 57q111 0 171.5 -57t60.5 -143t-60.5 -143.5t-171.5 -57.5q-109 0 -169 57.5t-60 143.5zM438 1270 q0 -41 24.5 -64.5t61.5 -23.5q39 0 64.5 23.5t25.5 64.5t-25.5 64.5t-64.5 23.5q-37 0 -61.5 -23.5t-24.5 -64.5z" />
<glyph unicode="&#xe6;" horiz-adv-x="1671" d="M498 987q117 0 199.5 -37t125.5 -110q123 147 330 147q98 0 179 -31.5t139.5 -88t91 -134.5t32.5 -170q0 -51 -25.5 -75.5t-72.5 -30.5l-598 -86q29 -117 112 -173.5t212 -56.5q86 0 157.5 27t114.5 57q57 -33 57 -92q0 -35 -26.5 -64.5t-72.5 -51t-108.5 -34 t-134.5 -12.5q-225 0 -352 127q-10 -23 -26.5 -39t-36.5 -26q-51 -27 -118 -45.5t-175 -18.5q-199 0 -310.5 78t-111.5 229q0 135 87 207t251 88l284 29v45q0 90 -58 131t-163 41q-82 0 -157.5 -22.5t-135.5 -51.5q-20 16 -34.5 40t-14.5 53q0 35 17.5 57t54.5 39 q57 29 131 42t156 13zM502 137q72 0 125 14.5t75 30.5v260l-223 -22q-94 -10 -141 -42t-47 -97q0 -68 51 -106t160 -38zM1153 821q-115 0 -187.5 -75.5t-78.5 -217.5l504 72q-8 92 -67.5 156.5t-170.5 64.5z" />
<glyph unicode="&#xe7;" horiz-adv-x="985" d="M612 813q-66 0 -121 -21.5t-95 -64.5t-63.5 -105.5t-23.5 -144.5q0 -162 84 -247t219 -85q78 0 133.5 20.5t96.5 49.5q27 -16 43 -38.5t16 -55.5q0 -51 -56.5 -90t-150.5 -54q45 -63 45 -151q0 -100 -62.5 -160.5t-166.5 -60.5q-59 0 -94 25.5t-35 72.5q0 12 2 26.5 t8 26.5h29q72 0 103.5 31t31.5 84q0 23 -8 50.5t-25 53.5q-96 10 -176 46t-137 98.5t-88 151.5t-31 206q0 127 40 223.5t108.5 160t161 95t194.5 31.5q68 0 122 -12t93 -33.5t60.5 -49.5t21.5 -58q0 -29 -15.5 -52.5t-37.5 -36.5q-43 27 -95.5 47.5t-130.5 20.5z" />
<glyph unicode="&#xe8;" horiz-adv-x="1079" d="M307 371q29 -117 112 -173.5t212 -56.5q86 0 157.5 27t114.5 57q57 -33 58 -92q0 -35 -27 -64.5t-73 -51t-108.5 -34t-134.5 -12.5q-119 0 -216 33t-166.5 98.5t-107.5 161.5t-38 223q0 123 37 216.5t100.5 156t149.5 95t184 32.5t179 -31.5t139.5 -88t90 -134.5 t31.5 -170q0 -51 -24.5 -74.5t-71.5 -31.5zM561 821q-113 0 -187.5 -75.5t-78.5 -217.5l504 72q-8 92 -67.5 156.5t-170.5 64.5zM274 1305q-4 20 -4 32q0 45 28 72t69 27q55 0 94 -47l184 -230q-4 -45 -29.5 -68.5t-60.5 -23.5q-29 0 -47.5 10t-38.5 29z" />
<glyph unicode="&#xe9;" horiz-adv-x="1079" d="M307 371q29 -117 112 -173.5t212 -56.5q86 0 157.5 27t114.5 57q57 -33 58 -92q0 -35 -27 -64.5t-73 -51t-108.5 -34t-134.5 -12.5q-119 0 -216 33t-166.5 98.5t-107.5 161.5t-38 223q0 123 37 216.5t100.5 156t149.5 95t184 32.5t179 -31.5t139.5 -88t90 -134.5 t31.5 -170q0 -51 -24.5 -74.5t-71.5 -31.5zM561 821q-113 0 -187.5 -75.5t-78.5 -217.5l504 72q-8 92 -67.5 156.5t-170.5 64.5zM713 1444q61 -2 96 -32t35 -64q0 -35 -14.5 -56.5t-49.5 -52.5l-188 -176q-53 0 -84 27.5t-31 60.5q0 20 9.5 36.5t25.5 33.5z" />
<glyph unicode="&#xea;" horiz-adv-x="1079" d="M307 371q29 -117 112 -173.5t212 -56.5q86 0 157.5 27t114.5 57q57 -33 58 -92q0 -35 -27 -64.5t-73 -51t-108.5 -34t-134.5 -12.5q-119 0 -216 33t-166.5 98.5t-107.5 161.5t-38 223q0 123 37 216.5t100.5 156t149.5 95t184 32.5t179 -31.5t139.5 -88t90 -134.5 t31.5 -170q0 -51 -24.5 -74.5t-71.5 -31.5zM561 821q-113 0 -187.5 -75.5t-78.5 -217.5l504 72q-8 92 -67.5 156.5t-170.5 64.5zM563 1270q-49 -57 -92 -102.5t-84 -94.5q-49 2 -80 25.5t-31 58.5q0 27 15.5 47.5t42.5 48.5l108 119q31 27 58.5 42.5t62.5 15.5 q39 0 66.5 -14.5t60.5 -53.5l164 -197q0 -35 -20.5 -61.5t-63.5 -26.5q-29 0 -48.5 14.5t-39.5 36.5z" />
<glyph unicode="&#xeb;" horiz-adv-x="1079" d="M307 371q29 -117 112 -173.5t212 -56.5q86 0 157.5 27t114.5 57q57 -33 58 -92q0 -35 -27 -64.5t-73 -51t-108.5 -34t-134.5 -12.5q-119 0 -216 33t-166.5 98.5t-107.5 161.5t-38 223q0 123 37 216.5t100.5 156t149.5 95t184 32.5t179 -31.5t139.5 -88t90 -134.5 t31.5 -170q0 -51 -24.5 -74.5t-71.5 -31.5zM561 821q-113 0 -187.5 -75.5t-78.5 -217.5l504 72q-8 92 -67.5 156.5t-170.5 64.5zM483 1247q0 -49 -33.5 -84t-87.5 -35q-53 0 -85.5 35t-32.5 84q0 47 32.5 82t85.5 35t87 -35t34 -82zM862 1247q0 -49 -33.5 -84t-87.5 -35 q-53 0 -86.5 35t-33.5 84q0 47 33.5 82t86.5 35t87 -35t34 -82z" />
<glyph unicode="&#xec;" horiz-adv-x="516" d="M365 -2q-12 -4 -38 -9t-57 -5q-59 0 -89.5 23.5t-30.5 76.5v866q14 4 40.5 9.5t55.5 5.5q61 0 90 -23.5t29 -77.5v-866zM-27 1305q-4 20 -4 32q0 45 28 72t69 27q55 0 94 -47l184 -230q-4 -45 -29.5 -68.5t-60.5 -23.5q-29 0 -47.5 10t-38.5 29z" />
<glyph unicode="&#xed;" horiz-adv-x="516" d="M365 -2q-12 -4 -38 -9t-57 -5q-59 0 -89.5 23.5t-30.5 76.5v866q14 4 40.5 9.5t55.5 5.5q61 0 90 -23.5t29 -77.5v-866zM408 1444q61 -2 96 -32t35 -64q0 -35 -14.5 -56.5t-49.5 -52.5l-188 -176q-53 0 -84 27.5t-31 60.5q0 20 9 36.5t26 33.5z" />
<glyph unicode="&#xee;" horiz-adv-x="516" d="M365 -2q-12 -4 -38 -9t-57 -5q-59 0 -89.5 23.5t-30.5 76.5v866q14 4 40.5 9.5t55.5 5.5q61 0 90 -23.5t29 -77.5v-866zM262 1270q-49 -57 -92 -102.5t-84 -94.5q-49 2 -80 25.5t-31 58.5q0 27 15.5 47.5t42.5 48.5l108 119q31 27 58.5 42.5t62.5 15.5q39 0 66.5 -14.5 t60.5 -53.5l164 -197q0 -35 -20.5 -61.5t-63.5 -26.5q-29 0 -48.5 14.5t-39.5 36.5z" />
<glyph unicode="&#xef;" horiz-adv-x="516" d="M365 -2q-12 -4 -38 -9t-57 -5q-59 0 -89.5 23.5t-30.5 76.5v866q14 4 40.5 9.5t55.5 5.5q61 0 90 -23.5t29 -77.5v-866zM188 1247q0 -49 -33.5 -84t-86.5 -35t-86 35t-33 84q0 47 32.5 82t86.5 35q53 0 86.5 -35t33.5 -82zM567 1247q0 -49 -33.5 -84t-87.5 -35 q-53 0 -86.5 35t-33.5 84q0 47 33.5 82t86.5 35t87 -35t34 -82z" />
<glyph unicode="&#xf0;" horiz-adv-x="1126" d="M799 1133q49 -59 92 -130t74.5 -151t50 -169t18.5 -181q0 -254 -118.5 -392.5t-348.5 -138.5q-109 0 -196.5 33t-150 94.5t-96.5 148.5t-34 197q0 119 38 205t99.5 143.5t141.5 85t166 27.5q66 0 119 -15.5t98 -43.5q-31 61 -66 113.5t-82 99.5l-256 -92q-23 16 -39 41.5 t-16 56.5q0 47 55 70l113 43q-45 27 -92 45t-97 34q2 53 30 87t79 34q66 0 140.5 -32.5t148.5 -90.5l211 84q23 -16 40 -39.5t17 -58.5t-14.5 -50t-42.5 -26zM815 455q0 45 -3 85t-7 76q-43 55 -102.5 87t-129.5 32q-133 0 -198.5 -77.5t-65.5 -213.5q0 -137 68.5 -218 t191.5 -81t184.5 84.5t61.5 225.5z" />
<glyph unicode="&#xf1;" horiz-adv-x="1159" d="M803 621q0 100 -56.5 147t-152.5 47q-72 0 -128 -18.5t-97 -40.5v-752q-14 -6 -40 -11t-57 -5q-59 0 -87.5 22.5t-28.5 75.5v676q0 47 18.5 75.5t61.5 57.5q57 35 149 63.5t209 28.5q199 0 311.5 -89t112.5 -269v-625q-14 -6 -41 -11t-57 -5q-59 0 -88 22.5t-29 75.5v535 zM418 1370q43 0 80 -10t70.5 -23.5t63.5 -23.5t56 -10q39 0 58.5 23.5t27.5 51.5h12q45 0 78 -24.5t33 -75.5q0 -68 -45 -104.5t-117 -36.5q-45 0 -85 10t-73.5 23.5t-63.5 23.5t-54 10q-39 0 -57.5 -23.5t-26.5 -54.5h-13q-45 0 -78.5 26t-33.5 77q0 68 51 104.5t117 36.5z " />
<glyph unicode="&#xf2;" d="M1061 479q0 -117 -35 -211t-97.5 -159.5t-152.5 -101.5t-201 -36t-200.5 36t-152 101.5t-97.5 159.5t-35 211t35 211t98.5 159.5t153.5 101.5t198 36q109 0 199 -36t153.5 -102.5t98.5 -159.5t35 -210zM575 815q-123 0 -194.5 -88t-71.5 -248t70 -247t196 -87 q127 0 197 87t70 247q0 158 -71 247t-196 89zM311 1305q-4 20 -4 32q0 45 27.5 72t68.5 27q55 0 95 -47l184 -230q-4 -45 -29.5 -68.5t-60.5 -23.5q-29 0 -47.5 10t-38.5 29z" />
<glyph unicode="&#xf3;" d="M1061 479q0 -117 -35 -211t-97.5 -159.5t-152.5 -101.5t-201 -36t-200.5 36t-152 101.5t-97.5 159.5t-35 211t35 211t98.5 159.5t153.5 101.5t198 36q109 0 199 -36t153.5 -102.5t98.5 -159.5t35 -210zM575 815q-123 0 -194.5 -88t-71.5 -248t70 -247t196 -87 q127 0 197 87t70 247q0 158 -71 247t-196 89zM729 1444q61 -2 96 -32t35 -64q0 -35 -14.5 -56.5t-48.5 -52.5l-189 -176q-53 0 -83.5 27.5t-30.5 60.5q0 20 9 36.5t25 33.5z" />
<glyph unicode="&#xf4;" d="M1061 479q0 -117 -35 -211t-97.5 -159.5t-152.5 -101.5t-201 -36t-200.5 36t-152 101.5t-97.5 159.5t-35 211t35 211t98.5 159.5t153.5 101.5t198 36q109 0 199 -36t153.5 -102.5t98.5 -159.5t35 -210zM575 815q-123 0 -194.5 -88t-71.5 -248t70 -247t196 -87 q127 0 197 87t70 247q0 158 -71 247t-196 89zM575 1270q-49 -57 -92 -102.5t-84 -94.5q-49 2 -79.5 25.5t-30.5 58.5q0 27 15 47.5t42 48.5l109 119q31 27 58.5 42.5t61.5 15.5q39 0 67 -14.5t60 -53.5l164 -197q0 -35 -20.5 -61.5t-63.5 -26.5q-29 0 -48 14.5t-40 36.5z " />
<glyph unicode="&#xf5;" d="M1061 479q0 -117 -35 -211t-97.5 -159.5t-152.5 -101.5t-201 -36t-200.5 36t-152 101.5t-97.5 159.5t-35 211t35 211t98.5 159.5t153.5 101.5t198 36q109 0 199 -36t153.5 -102.5t98.5 -159.5t35 -210zM575 815q-123 0 -194.5 -88t-71.5 -248t70 -247t196 -87 q127 0 197 87t70 247q0 158 -71 247t-196 89zM424 1370q43 0 80 -10t70.5 -23.5t63.5 -23.5t56 -10q39 0 58.5 23.5t27.5 51.5h13q45 0 77.5 -24.5t32.5 -75.5q0 -68 -45 -104.5t-117 -36.5q-45 0 -85 10t-73.5 23.5t-63.5 23.5t-54 10q-39 0 -57.5 -23.5t-26.5 -54.5h-12 q-45 0 -79 26t-34 77q0 68 51 104.5t117 36.5z" />
<glyph unicode="&#xf6;" d="M1061 479q0 -117 -35 -211t-97.5 -159.5t-152.5 -101.5t-201 -36t-200.5 36t-152 101.5t-97.5 159.5t-35 211t35 211t98.5 159.5t153.5 101.5t198 36q109 0 199 -36t153.5 -102.5t98.5 -159.5t35 -210zM575 815q-123 0 -194.5 -88t-71.5 -248t70 -247t196 -87 q127 0 197 87t70 247q0 158 -71 247t-196 89zM506 1247q0 -49 -34 -84t-87 -35t-86 35t-33 84q0 47 33 82t86 35t87 -35t34 -82zM885 1247q0 -49 -34 -84t-87 -35t-87 35t-34 84q0 47 34 82t87 35t87 -35t34 -82z" />
<glyph unicode="&#xf7;" horiz-adv-x="1071" d="M113 520q-8 16 -14.5 37t-6.5 47q0 45 23.5 67.5t62.5 22.5h780q8 -16 14.5 -37.5t6.5 -46.5q0 -47 -23.5 -68.5t-64.5 -21.5h-778zM416 268q0 53 33.5 88t91.5 35q55 0 88 -34.5t33 -88.5q0 -53 -33 -88t-88 -35q-57 0 -91 35t-34 88zM416 940q0 53 33.5 88t91.5 35 q55 0 88 -35t33 -88t-33 -88t-88 -35q-57 0 -91 35t-34 88z" />
<glyph unicode="&#xf8;" d="M1061 479q0 -117 -35 -211t-97.5 -159.5t-152.5 -101.5t-201 -36q-121 0 -221 45l-96 -141q-45 0 -78 22.5t-33 57.5q0 18 15 39l71 102q-70 66 -106.5 163t-36.5 220q0 117 35 211t98.5 159.5t153.5 101.5t198 36q119 0 220 -45l96 143q41 0 74.5 -22.5t33.5 -58.5 q0 -16 -12 -35l-74 -107q72 -68 110 -164t38 -219zM850 479q0 66 -14.5 120t-38.5 95l-340 -526q51 -25 118 -25q127 0 201 87t74 249zM575 815q-123 0 -198.5 -88t-75.5 -248q0 -129 51 -215l342 524q-58 27 -119 27z" />
<glyph unicode="&#xf9;" horiz-adv-x="1144" d="M141 956q14 4 41 9.5t58 5.5q59 0 86.5 -22.5t27.5 -78.5v-505q0 -119 62.5 -169.5t173.5 -50.5q72 0 121 14.5t77 30.5v766q16 4 42 9.5t57 5.5q59 0 88 -22.5t29 -78.5v-690q0 -45 -14.5 -73.5t-57.5 -55.5q-53 -31 -140 -55.5t-204 -24.5q-211 0 -329 93.5t-118 295.5 v596zM281 1305q-4 20 -5 32q0 45 28 72t69 27q55 0 94 -47l184 -230q-4 -45 -29.5 -68.5t-60.5 -23.5q-29 0 -47 10t-39 29z" />
<glyph unicode="&#xfa;" horiz-adv-x="1144" d="M141 956q14 4 41 9.5t58 5.5q59 0 86.5 -22.5t27.5 -78.5v-505q0 -119 62.5 -169.5t173.5 -50.5q72 0 121 14.5t77 30.5v766q16 4 42 9.5t57 5.5q59 0 88 -22.5t29 -78.5v-690q0 -45 -14.5 -73.5t-57.5 -55.5q-53 -31 -140 -55.5t-204 -24.5q-211 0 -329 93.5t-118 295.5 v596zM727 1444q61 -2 96 -32t35 -64q0 -35 -14.5 -56.5t-48.5 -52.5l-189 -176q-53 0 -83.5 27.5t-30.5 60.5q0 20 9 36.5t25 33.5z" />
<glyph unicode="&#xfb;" horiz-adv-x="1144" d="M141 956q14 4 41 9.5t58 5.5q59 0 86.5 -22.5t27.5 -78.5v-505q0 -119 62.5 -169.5t173.5 -50.5q72 0 121 14.5t77 30.5v766q16 4 42 9.5t57 5.5q59 0 88 -22.5t29 -78.5v-690q0 -45 -14.5 -73.5t-57.5 -55.5q-53 -31 -140 -55.5t-204 -24.5q-211 0 -329 93.5t-118 295.5 v596zM575 1270q-49 -57 -92 -102.5t-84 -94.5q-49 2 -79.5 25.5t-30.5 58.5q0 27 15 47.5t42 48.5l109 119q31 27 58.5 42.5t61.5 15.5q39 0 67 -14.5t60 -53.5l164 -197q0 -35 -20.5 -61.5t-63.5 -26.5q-29 0 -48 14.5t-40 36.5z" />
<glyph unicode="&#xfc;" horiz-adv-x="1144" d="M141 956q14 4 41 9.5t58 5.5q59 0 86.5 -22.5t27.5 -78.5v-505q0 -119 62.5 -169.5t173.5 -50.5q72 0 121 14.5t77 30.5v766q16 4 42 9.5t57 5.5q59 0 88 -22.5t29 -78.5v-690q0 -45 -14.5 -73.5t-57.5 -55.5q-53 -31 -140 -55.5t-204 -24.5q-211 0 -329 93.5t-118 295.5 v596zM498 1247q0 -49 -34 -84t-87 -35t-86 35t-33 84q0 47 33 82t86 35t87 -35t34 -82zM877 1247q0 -49 -34 -84t-87 -35t-87 35t-34 84q0 47 33.5 82t87.5 35q53 0 87 -35t34 -82z" />
<glyph unicode="&#xfd;" horiz-adv-x="1036" d="M324 223q-51 100 -125 284.5t-144 418.5q18 23 49 38t66 15q45 0 73.5 -21.5t47.5 -74.5q55 -166 114.5 -327t131.5 -333h8q31 66 62.5 154t62 186.5t57.5 199.5t47 193q20 10 42 16.5t50 6.5q45 0 76 -21.5t31 -66.5q0 -53 -27.5 -163t-73 -242t-102.5 -267t-115 -239 q-102 -180 -185 -274.5t-157 -94.5q-57 0 -91 31.5t-42 78.5q33 29 72 70t78 88t73.5 97.5t59.5 97.5q-35 10 -67.5 39.5t-71.5 109.5zM659 1444q61 -2 96.5 -32t35.5 -64q0 -35 -14.5 -56.5t-49.5 -52.5l-188 -176q-53 0 -84 27.5t-31 60.5q0 20 9 36.5t26 33.5z" />
<glyph unicode="&#xfe;" d="M580 -29q-66 0 -123.5 13.5t-98.5 33.5v-378q-14 -6 -39.5 -11.5t-56.5 -5.5q-59 0 -88 23.5t-29 77.5v1607q12 4 40 9.5t57 5.5q61 0 88.5 -24t27.5 -75v-303q41 16 96.5 29.5t120.5 13.5q98 0 185.5 -29.5t153 -91t103.5 -157t38 -226.5q0 -129 -36 -224t-98.5 -159.5 t-149.5 -96.5t-191 -32zM547 145q133 0 211 81t78 257q0 90 -22.5 153.5t-61.5 103.5t-91.5 57.5t-109.5 17.5t-104.5 -13.5t-88.5 -37.5v-563q35 -25 82.5 -40.5t106.5 -15.5z" />
<glyph unicode="&#xff;" horiz-adv-x="1036" d="M324 223q-51 100 -125 284.5t-144 418.5q18 23 49 38t66 15q45 0 73.5 -21.5t47.5 -74.5q55 -166 114.5 -327t131.5 -333h8q31 66 62.5 154t62 186.5t57.5 199.5t47 193q20 10 42 16.5t50 6.5q45 0 76 -21.5t31 -66.5q0 -53 -27.5 -163t-73 -242t-102.5 -267t-115 -239 q-102 -180 -185 -274.5t-157 -94.5q-57 0 -91 31.5t-42 78.5q33 29 72 70t78 88t73.5 97.5t59.5 97.5q-35 10 -67.5 39.5t-71.5 109.5zM449 1247q0 -49 -34 -84t-87 -35t-86 35t-33 84q0 47 32.5 82t86.5 35q53 0 87 -35t34 -82zM827 1247q0 -49 -33.5 -84t-86.5 -35t-87 35 t-34 84q0 47 33.5 82t87.5 35q53 0 86.5 -35t33.5 -82z" />
<glyph unicode="&#x152;" horiz-adv-x="1949" d="M1829 176q8 -12 15 -34.5t7 -49.5q0 -94 -79 -94h-625q-49 0 -80 25.5t-37 70.5q-129 -123 -340 -123q-127 0 -234.5 42t-187.5 124t-125 204t-45 282t46 280.5t127 203.5t189.5 125t231.5 42q100 0 186.5 -30t153.5 -91q6 41 36 65.5t79 24.5h672q8 -12 16 -34.5 t8 -49.5q0 -45 -21.5 -69.5t-58.5 -24.5h-524v-340h518q8 -12 16.5 -34.5t8.5 -49.5q0 -47 -21.5 -69.5t-58.5 -22.5h-463v-373h590zM1022 901q-49 96 -133 143.5t-195 47.5q-82 0 -150.5 -31t-117.5 -90.5t-75.5 -147.5t-26.5 -200q0 -229 102 -350t268 -121q231 0 328 182 v567z" />
<glyph unicode="&#x153;" horiz-adv-x="1820" d="M569 987q123 0 217.5 -48t153.5 -136q59 92 153.5 138t211.5 46q96 0 177 -31.5t139 -88t91 -134.5t33 -170q0 -51 -25.5 -75.5t-72.5 -30.5l-598 -86q29 -117 111.5 -173.5t211.5 -56.5q86 0 158 27t115 57q27 -16 43 -39.5t16 -52.5q0 -35 -26.5 -64.5t-74 -51 t-109.5 -34t-134 -12.5q-139 0 -244.5 46t-171.5 143q-59 -90 -153.5 -139.5t-221.5 -49.5q-111 0 -199.5 36t-150 101.5t-95.5 159.5t-34 211t34 211t96.5 159.5t151 101.5t197.5 36zM575 815q-123 0 -194.5 -88t-71.5 -248t70 -247t196 -87q127 0 197 87t70 247 q0 158 -71 247t-196 89zM1303 821q-115 0 -189 -75.5t-78 -217.5l506 72q-10 92 -69 156.5t-170 64.5z" />
<glyph unicode="&#x178;" horiz-adv-x="1140" d="M1094 1163q0 -45 -102.5 -228t-301.5 -486v-445q-16 -6 -44 -11t-56 -5q-63 0 -90 23.5t-27 76.5v358q-55 82 -116.5 177.5t-121 192.5t-111.5 190.5t-89 173.5q12 29 40.5 52t76.5 23q49 0 77.5 -23.5t59.5 -78.5q25 -43 63.5 -114.5t81.5 -148.5t82 -145.5t62 -105.5h8 q45 82 86 156.5t77.5 146.5t73.5 143.5t74 147.5q18 10 44 16t48 6q47 0 76 -24.5t29 -67.5zM508 1505q0 -49 -34 -84t-87 -35t-86 35t-33 84q0 47 33 82t86 35t87 -35t34 -82zM887 1505q0 -49 -34 -84t-87 -35t-87 35t-34 84q0 47 34 82t87 35t87 -35t34 -82z" />
<glyph unicode="&#x2c6;" horiz-adv-x="712" d="M358 1270q-49 -57 -92 -102.5t-84 -94.5q-49 2 -79.5 25.5t-30.5 58.5q0 27 15 47.5t42 48.5l109 119q31 27 58.5 42.5t61.5 15.5q39 0 67 -14.5t60 -53.5l164 -197q0 -35 -20.5 -61.5t-63.5 -26.5q-29 0 -48 14.5t-40 36.5z" />
<glyph unicode="&#x2dc;" horiz-adv-x="765" d="M227 1370q43 0 80 -10t71 -23.5t63.5 -23.5t56.5 -10q39 0 58 23.5t28 51.5h12q45 0 78 -24.5t33 -75.5q0 -68 -45.5 -104.5t-116.5 -36.5q-45 0 -85 10t-74 23.5t-63.5 23.5t-54.5 10q-39 0 -57 -23.5t-27 -54.5h-12q-45 0 -79 26t-34 77q0 68 51 104.5t117 36.5z" />
<glyph unicode="&#x2000;" horiz-adv-x="863" />
<glyph unicode="&#x2001;" horiz-adv-x="1726" />
<glyph unicode="&#x2002;" horiz-adv-x="863" />
<glyph unicode="&#x2003;" horiz-adv-x="1726" />
<glyph unicode="&#x2004;" horiz-adv-x="575" />
<glyph unicode="&#x2005;" horiz-adv-x="431" />
<glyph unicode="&#x2006;" horiz-adv-x="287" />
<glyph unicode="&#x2007;" horiz-adv-x="287" />
<glyph unicode="&#x2008;" horiz-adv-x="215" />
<glyph unicode="&#x2009;" horiz-adv-x="345" />
<glyph unicode="&#x200a;" horiz-adv-x="95" />
<glyph unicode="&#x2010;" horiz-adv-x="776" d="M119 442q-10 16 -16.5 38t-6.5 48q0 45 23.5 67.5t64.5 22.5h475q6 -16 13.5 -37.5t7.5 -45.5q0 -45 -22.5 -69t-63.5 -24h-475z" />
<glyph unicode="&#x2011;" horiz-adv-x="776" d="M119 442q-10 16 -16.5 38t-6.5 48q0 45 23.5 67.5t64.5 22.5h475q6 -16 13.5 -37.5t7.5 -45.5q0 -45 -22.5 -69t-63.5 -24h-475z" />
<glyph unicode="&#x2012;" horiz-adv-x="776" d="M119 442q-10 16 -16.5 38t-6.5 48q0 45 23.5 67.5t64.5 22.5h475q6 -16 13.5 -37.5t7.5 -45.5q0 -45 -22.5 -69t-63.5 -24h-475z" />
<glyph unicode="&#x2013;" horiz-adv-x="1097" d="M111 442q-6 16 -12.5 38t-6.5 48q0 90 86 90h809q6 -16 12.5 -37.5t6.5 -45.5q0 -92 -84 -93h-811z" />
<glyph unicode="&#x2014;" horiz-adv-x="1574" d="M119 449q-10 16 -16.5 36.5t-6.5 46.5q0 47 23.5 69t64.5 22h1274q8 -16 14.5 -38t6.5 -46q0 -45 -22.5 -67.5t-63.5 -22.5h-1274z" />
<glyph unicode="&#x2018;" horiz-adv-x="317" d="M117 1231q16 31 35.5 44t54.5 13q23 0 45 -7t39 -17q-6 -43 -13.5 -97.5t-14.5 -113t-13 -115.5t-8 -104q-23 -10 -47.5 -17.5t-53.5 -7.5q-45 0 -75.5 21.5t-30.5 72.5q0 33 8 79t20.5 93t27 89t26.5 67z" />
<glyph unicode="&#x2019;" horiz-adv-x="313" d="M203 868q-16 -31 -37 -45t-53 -14q-25 0 -46.5 8t-39.5 19q6 45 13 99t15 111.5t13.5 114t9.5 105.5q20 8 46 14t54 6q45 0 75 -21.5t30 -72.5q0 -33 -8.5 -78t-19.5 -91t-25.5 -88t-26.5 -67z" />
<glyph unicode="&#x201a;" horiz-adv-x="323" d="M203 -231q-16 -31 -37 -45.5t-53 -14.5q-25 0 -46.5 8.5t-39.5 18.5q6 45 13 99t15 111.5t13.5 114t9.5 105.5q20 8 46 14t54 6q45 0 75 -21.5t30 -72.5q0 -33 -8.5 -78t-19.5 -91t-25.5 -87.5t-26.5 -66.5z" />
<glyph unicode="&#x201c;" horiz-adv-x="626" d="M430 1231q29 57 88 57q45 0 80 -22q-6 -45 -14.5 -100.5t-15.5 -114t-12 -115.5t-7 -105q-23 -10 -46.5 -16t-51.5 -6q-45 0 -72 21.5t-27 72.5q0 33 7.5 79t19.5 93t25.5 89t25.5 67zM115 1231q16 31 33.5 44t52.5 13q45 0 80 -22q-6 -43 -13.5 -99.5t-15.5 -115 t-14.5 -115.5t-8.5 -105q-23 -10 -45 -16t-49 -6q-47 0 -73.5 21.5t-26.5 72.5q0 33 7 79t19.5 93t27 89t26.5 67z" />
<glyph unicode="&#x201d;" horiz-adv-x="626" d="M193 868q-16 -31 -34 -45t-50 -14q-25 0 -44.5 7t-37.5 18q6 43 13 98t15 113.5t13.5 116t9.5 104.5q20 10 42.5 15t51.5 5q47 0 73.5 -21.5t26.5 -72.5q0 -33 -7 -78t-18 -91t-25.5 -88t-28.5 -67zM512 868q-16 -31 -34.5 -45t-53.5 -14q-43 0 -78 25q6 45 13.5 100 t14.5 112.5t12 115t9 104.5q23 10 45.5 15t51.5 5q45 0 71.5 -21.5t26.5 -72.5q0 -33 -7.5 -78t-19.5 -91t-25.5 -88t-25.5 -67z" />
<glyph unicode="&#x201e;" horiz-adv-x="628" d="M193 -231q-16 -31 -34 -45.5t-50 -14.5q-25 0 -44.5 7.5t-37.5 17.5q6 43 13 98t15 113.5t13.5 116t9.5 104.5q20 10 42.5 15t51.5 5q47 0 73.5 -21.5t26.5 -72.5q0 -33 -7 -78t-18 -91t-25.5 -87.5t-28.5 -66.5zM512 -231q-16 -31 -34.5 -45.5t-53.5 -14.5q-43 0 -78 25 q6 45 13.5 100t14.5 112.5t12 115t9 104.5q23 10 45.5 15t51.5 5q45 0 71.5 -21.5t26.5 -72.5q0 -33 -7.5 -78t-19.5 -91t-25.5 -87.5t-25.5 -66.5z" />
<glyph unicode="&#x2022;" horiz-adv-x="567" d="M92 578q0 78 52.5 134t138.5 56t138 -56.5t52 -133.5q0 -78 -52 -133.5t-138 -55.5t-138.5 55.5t-52.5 133.5z" />
<glyph unicode="&#x2026;" horiz-adv-x="1095" d="M788 109q0 59 35 98t101 39t101.5 -39t35.5 -98t-36 -98.5t-101 -39.5q-66 0 -101 39.5t-35 98.5zM412 109q0 59 35.5 98t99.5 39q66 0 101.5 -39t35.5 -98t-36 -98.5t-101 -39.5q-63 0 -99 39.5t-36 98.5zM37 109q0 59 36 98t99 39q66 0 100.5 -39t34.5 -98t-34.5 -98.5 t-100.5 -39.5q-63 0 -99 39.5t-36 98.5z" />
<glyph unicode="&#x202f;" horiz-adv-x="345" />
<glyph unicode="&#x2039;" horiz-adv-x="598" d="M520 174q0 -39 -24.5 -69.5t-75.5 -30.5q-31 0 -57.5 18.5t-51.5 44.5l-219 238q-25 35 -24 84q0 41 11 63.5t27 38.5l297 305q51 -12 77 -37.5t26 -58.5q0 -31 -14.5 -54.5t-51.5 -60.5l-194 -196z" />
<glyph unicode="&#x203a;" horiz-adv-x="598" d="M78 764q0 39 24.5 70.5t73.5 31.5q33 0 59.5 -18.5t49.5 -44.5l221 -238q10 -16 16 -37.5t6 -46.5q0 -41 -10 -64.5t-29 -39.5l-299 -303q-49 12 -73.5 37.5t-24.5 58.5q0 31 13.5 53.5t52.5 61.5l192 196z" />
<glyph unicode="&#x205f;" horiz-adv-x="431" />
<glyph unicode="&#x20ac;" horiz-adv-x="1245" d="M68 678q-10 12 -16.5 31.5t-6.5 42.5q0 43 18.5 59t42.5 16h95q27 111 82 194t129.5 139.5t168 85t195.5 28.5q88 0 159 -15.5t121 -40t77.5 -56.5t27.5 -64q0 -35 -19.5 -60.5t-45.5 -40.5q-53 37 -123 68t-174 31q-129 0 -230.5 -66.5t-148.5 -202.5h541 q8 -16 14 -34.5t6 -40.5q0 -37 -16.5 -55.5t-44.5 -18.5h-852zM422 408q45 -129 145.5 -193.5t241.5 -64.5q100 0 172 27.5t125 64.5q27 -14 46 -39t19 -60q0 -59 -65 -98q-45 -29 -122 -51.5t-193 -22.5q-109 0 -205.5 28t-173 82t-132 136t-81.5 191h-131 q-10 12 -16.5 31.5t-6.5 43.5q0 41 18.5 56.5t42.5 15.5h855q8 -16 14 -33.5t6 -40.5q0 -37 -16.5 -55t-44.5 -18h-498z" />
<glyph unicode="&#x2122;" horiz-adv-x="1421" d="M86 1122q-6 10 -12 24.5t-6 33.5q0 37 16 52t43 15h463q6 -10 12 -27.5t6 -37.5q0 -35 -16.5 -47.5t-40.5 -12.5h-141v-485q-10 -2 -29 -5t-41 -3q-41 0 -59.5 16.5t-18.5 63.5v413h-176zM1061 797q-12 -10 -28.5 -15.5t-43.5 -5.5q-31 0 -52.5 9.5t-27.5 27.5l-100 260 l-10 -434q-27 -10 -68 -10t-61.5 14t-20.5 49l29 529q10 10 34.5 23t61.5 13q43 0 66.5 -14t33.5 -41l113 -268l117 311q12 4 31.5 8t48.5 4q41 0 68.5 -15t31.5 -40q4 -29 10 -104.5t13.5 -163.5t12.5 -168t7 -119q-12 -8 -27.5 -13t-39.5 -5q-35 0 -56.5 14t-23.5 49 q-4 70 -7.5 158t-9.5 223z" />
<glyph unicode="&#x25fc;" horiz-adv-x="972" d="M0 973h973v-973h-973v973z" />
</font>
</defs>
</svg>
